<svg xmlns="http://www.w3.org/2000/svg" viewBox="0 0 256 256" role="img" aria-label="Male business profile">
  <!-- Outer circle border -->
  <circle cx="128" cy="128" r="122" fill="#ffffff" stroke="#1a1a1a" stroke-width="6"/>
  
  <!-- Head - black silhouette -->
  <ellipse cx="128" cy="70" rx="48" ry="55" fill="#000000"/>
  
  <!-- Hair spikes/texture top -->
  <path d="M 90 35 L 95 20 L 100 30 L 105 15 L 110 28 L 115 18 L 120 32 L 125 22 L 128 15 L 131 22 L 136 32 L 141 18 L 146 28 L 151 15 L 156 30 L 161 20 L 166 35" fill="#000000"/>
  
  <!-- Ears -->
  <ellipse cx="82" cy="70" rx="8" ry="20" fill="#000000"/>
  <ellipse cx="174" cy="70" rx="8" ry="20" fill="#000000"/>
  
  <!-- Neck -->
  <rect x="118" y="118" width="20" height="16" fill="#000000"/>
  
  <!-- Suit Jacket Shoulders - broad -->
  <path d="M 55 140 L 85 132 L 128 128 L 171 132 L 201 140 L 205 250 L 51 250 Z" fill="#000000"/>
  
  <!-- White Shirt/Collar -->
  <path d="M 105 140 L 105 180 L 128 195 L 151 180 L 151 140 Z" fill="#ffffff"/>
  
  <!-- Left Lapel -->
  <polygon points="85,140 105,140 95,195" fill="#000000"/>
  
  <!-- Right Lapel -->
  <polygon points="171,140 151,140 161,195" fill="#000000"/>
  
  <!-- Tie -->
  <polygon points="120,150 128,160 136,150 136,190 128,205 120,190" fill="#000000"/>
</svg>
