<svg xmlns="http://www.w3.org/2000/svg" viewBox="0 0 3000 3000"><defs><style>.cls-1{fill:none;}.cls-2{fill:#262222;}</style></defs><g id="Layer_1" data-name="Layer 1"><rect class="cls-1" width="3000" height="3000"/></g><g id="Layer_2" data-name="Layer 2"><path class="cls-2" d="M1162.61,1590.61c-25.79,6-51.89,12.58-77.67,19.5a1617.94,1617.94,0,0,0-490.53,239.11,262.78,262.78,0,0,0-100.62,201.36V2554h778.87l-110.05-963.35Z"/><path class="cls-2" d="M2003.1,949.42c0,278-225.24,503.39-503.1,503.39S996.9,1227.43,996.9,949.42,1222.14,446,1500,446s503.1,225.37,503.1,503.38Z"/><path class="cls-2" d="M2405.59,1849.22c-138.36-113.26-314.44-188.77-490.53-239.11-25.15-7.54-51.25-14.47-77.67-21.08L1727.34,2554h778.87V2050.58a262.78,262.78,0,0,0-100.62-201.36ZM2286.1,2207.88H1971.66V2145H2286.1v62.92Z"/><polygon class="cls-2" points="1596.22 1735.96 1657.22 1547.19 1342.78 1547.19 1403.78 1735.96 1596.22 1735.96 1596.22 1735.96 1596.22 1735.96"/><polygon class="cls-2" points="1408.5 1798.88 1365.73 2419.62 1500 2553.96 1634.27 2419.62 1591.5 1798.88 1408.5 1798.88 1408.5 1798.88 1408.5 1798.88"/></g></svg>