<?xml version="1.0" standalone="no"?>
<!DOCTYPE svg PUBLIC "-//W3C//DTD SVG 20010904//EN"
 "http://www.w3.org/TR/2001/REC-SVG-20010904/DTD/svg10.dtd">
<svg version="1.0" xmlns="http://www.w3.org/2000/svg"
 width="616.000000pt" height="616.000000pt" viewBox="0 0 616.000000 616.000000"
 preserveAspectRatio="xMidYMid meet">

<g transform="translate(0.000000,616.000000) scale(0.100000,-0.100000)"
fill="#000000" stroke="none">
<path d="M2922 6112 c-12 -27 -42 -114 -68 -193 -49 -150 -67 -179 -113 -179
-59 0 -105 22 -161 78 -53 53 -66 76 -136 226 l-18 39 -90 -6 c-50 -4 -120
-15 -155 -24 l-63 -18 1 -236 2 -236 -28 -18 c-45 -30 -113 -31 -170 -4 -45
22 -72 48 -239 227 l-51 55 -99 -52 c-125 -67 -138 -79 -124 -115 5 -15 10
-42 10 -59 0 -18 14 -88 30 -157 17 -69 33 -150 36 -180 6 -50 4 -57 -20 -79
-17 -16 -41 -25 -73 -28 -71 -7 -144 25 -244 106 -96 77 -119 91 -149 91 -22
0 -220 -184 -220 -204 0 -6 38 -76 84 -155 47 -79 90 -165 96 -192 13 -53 7
-101 -16 -120 -21 -17 -165 -14 -234 6 -129 36 -222 56 -238 51 -17 -6 -102
-146 -124 -203 -10 -28 -8 -35 28 -86 22 -31 86 -105 141 -165 l102 -109 -6
-70 -6 -70 -109 -7 c-111 -7 -263 -29 -331 -47 -41 -11 -49 -24 -73 -119 -27
-110 -28 -107 102 -191 208 -133 254 -168 272 -205 15 -31 15 -38 2 -61 -30
-53 -42 -58 -340 -135 l-125 -33 -3 -139 c-2 -115 0 -142 13 -156 17 -19 115
-51 208 -68 31 -6 84 -23 117 -38 49 -22 61 -32 71 -61 17 -52 6 -110 -28
-145 -15 -16 -59 -50 -98 -75 -38 -25 -91 -59 -116 -76 -59 -39 -81 -76 -81
-135 0 -59 34 -151 68 -183 25 -23 33 -24 221 -31 181 -6 197 -8 217 -27 27
-28 28 -120 2 -170 -10 -19 -65 -81 -122 -137 -80 -79 -104 -109 -104 -130 0
-37 119 -233 146 -240 24 -6 156 23 282 62 93 29 139 27 172 -9 48 -51 36 -97
-75 -274 -41 -65 -77 -133 -81 -151 -8 -41 17 -79 119 -180 l74 -74 74 36 c41
19 110 58 153 85 96 61 135 75 193 68 98 -11 105 -59 37 -269 -25 -78 -44
-155 -42 -172 2 -23 15 -39 50 -66 60 -45 146 -97 186 -112 28 -11 33 -9 79
31 26 23 71 61 100 84 38 30 60 58 79 101 l26 59 80 -6 c44 -3 85 -10 90 -15
6 -6 17 -111 25 -234 8 -123 17 -226 21 -230 13 -13 186 -59 231 -61 43 -2 46
0 83 48 21 28 66 105 100 173 34 68 70 128 79 133 20 10 96 12 152 2 24 -4 44
-14 54 -29 8 -13 23 -83 34 -156 20 -148 40 -217 71 -244 17 -16 41 -20 149
-22 l130 -4 29 66 c42 92 61 167 67 268 3 47 9 91 13 98 9 15 73 29 135 30
l50 0 47 -94 c66 -133 133 -233 171 -256 44 -28 91 -25 202 11 l96 30 -7 228
c-8 262 -21 234 112 253 l86 12 36 -44 c20 -25 80 -90 133 -145 l97 -99 55 17
c100 32 192 119 190 181 -1 17 -22 84 -48 149 -76 194 -72 247 22 289 71 31
111 22 250 -61 155 -91 191 -105 229 -84 62 31 154 140 154 181 0 15 -29 70
-70 133 -89 136 -110 182 -110 242 0 40 5 53 29 78 27 26 35 29 99 29 44 0
112 -11 183 -29 178 -45 182 -46 218 -16 32 28 43 45 89 140 l30 59 -57 65
c-31 35 -79 87 -107 115 -112 111 -123 205 -33 280 l32 27 183 -3 c227 -3 225
-4 233 124 8 115 5 131 -35 172 -40 41 -155 111 -219 133 -52 17 -63 42 -72
149 -8 102 -2 110 100 117 92 7 229 39 262 61 25 16 35 85 35 238 0 87 0 88
-29 103 -16 8 -90 33 -165 54 -74 22 -144 45 -155 51 -24 12 -42 71 -34 112 3
17 23 44 47 64 48 42 234 154 254 154 12 0 14 14 9 83 -3 45 -13 115 -22 155
-24 103 -27 105 -234 109 -248 5 -249 6 -272 59 -18 39 -18 46 -5 71 8 16 47
60 88 98 40 39 101 103 136 144 l63 73 -27 47 c-14 25 -42 74 -61 108 -18 34
-40 67 -48 73 -19 16 -70 9 -180 -24 -57 -17 -126 -29 -187 -33 -96 -6 -96 -6
-122 22 -56 61 -40 155 49 273 58 78 115 184 115 212 0 18 -172 180 -191 180
-14 0 -78 -33 -184 -95 -150 -88 -203 -102 -265 -70 -75 39 -78 101 -15 279
27 77 45 145 45 171 0 38 -4 47 -32 66 -18 13 -59 45 -91 71 -100 82 -98 83
-286 -87 -67 -60 -134 -117 -149 -127 -36 -24 -134 -25 -153 -2 -9 12 -16 63
-20 163 -12 279 -60 355 -240 385 -33 6 -36 4 -52 -30 -39 -81 -189 -295 -213
-304 -29 -11 -114 -13 -139 -4 -20 8 -54 76 -93 184 -16 47 -44 118 -62 158
l-33 72 -127 0 -128 0 -20 -48z m533 -458 c449 -55 866 -228 1239 -512 442
-338 778 -865 916 -1436 46 -189 51 -240 57 -571 4 -258 3 -328 -11 -415 -50
-320 -119 -546 -241 -795 -110 -225 -212 -377 -390 -580 -158 -181 -357 -346
-580 -482 -289 -175 -621 -290 -1027 -353 -126 -20 -631 -8 -788 19 -470 80
-868 263 -1232 568 -57 47 -113 93 -126 101 -13 8 -36 34 -52 57 -16 23 -64
80 -106 126 -145 158 -258 331 -375 574 -108 225 -170 428 -219 722 -21 119
-22 150 -17 448 6 349 17 454 67 640 65 243 155 458 288 683 105 177 171 259
376 469 174 178 198 199 349 300 261 174 563 316 807 378 297 75 734 99 1065
59z"/>
<path d="M2816 5493 c-4 -4 -35 -8 -69 -8 -48 0 -69 -5 -94 -23 -40 -28 -68
-98 -59 -146 5 -26 1 -46 -14 -75 -21 -42 -39 -57 -79 -62 -25 -4 -25 -4 -45
74 -6 24 -4 27 17 27 15 0 29 -9 37 -25 23 -43 29 -13 12 58 -15 64 -32 89
-32 47 0 -11 -10 -30 -22 -42 l-22 -22 -13 49 c-14 56 -11 60 34 70 27 5 37 2
58 -19 14 -14 28 -26 30 -26 8 0 5 38 -4 64 l-10 25 -148 -39 c-171 -44 -313
-96 -313 -114 0 -23 22 -76 31 -76 5 0 9 14 9 30 0 25 35 79 45 68 1 -1 19
-50 40 -107 32 -87 36 -107 26 -123 -7 -11 -10 -22 -8 -24 2 -3 33 6 67 18 64
23 89 45 49 44 -19 -1 -27 14 -60 103 -21 57 -36 107 -33 112 9 16 44 10 61
-11 25 -29 36 -25 28 10 -4 17 -2 30 3 30 5 0 22 -50 37 -110 27 -108 27 -111
9 -125 -36 -26 -8 -24 105 5 63 17 115 30 117 30 2 0 4 18 4 40 l0 39 24 -24
c21 -21 81 -45 113 -45 29 0 93 34 108 57 22 33 11 42 -18 15 -13 -12 -38 -27
-56 -33 -28 -10 -36 -9 -59 8 -54 41 -68 178 -21 216 29 24 64 15 106 -26 18
-17 35 -28 38 -25 7 7 -6 98 -15 98 -4 0 -10 -3 -14 -7z"/>
<path d="M2860 5494 c0 -4 8 -12 17 -19 14 -11 18 -33 21 -118 4 -97 3 -105
-17 -119 -11 -8 -18 -18 -14 -21 8 -9 71 -9 112 -1 l32 7 -21 19 c-14 13 -20
31 -20 63 l0 45 45 0 45 0 0 -55 c0 -42 -3 -55 -15 -55 -8 0 -15 -4 -15 -10 0
-6 28 -10 64 -10 35 0 87 -5 116 -10 61 -12 70 -8 46 19 -15 16 -15 26 -4 100
l13 81 73 -120 c67 -108 92 -139 92 -110 0 15 29 211 35 238 3 12 12 22 20 22
34 0 11 18 -31 25 -55 8 -62 3 -36 -23 17 -17 18 -26 11 -72 -4 -29 -10 -54
-12 -56 -2 -2 -28 36 -58 84 -53 85 -55 87 -99 93 -54 8 -59 5 -36 -20 16 -18
17 -28 5 -116 -15 -115 -23 -130 -62 -116 l-27 11 0 115 c0 96 3 115 15 115 8
0 15 5 15 10 0 6 -32 10 -77 9 -74 0 -77 -1 -55 -16 17 -12 22 -25 22 -59 l0
-44 -45 0 -45 0 0 46 c0 37 4 47 20 51 44 12 16 23 -55 23 -41 0 -75 -3 -75
-6z"/>
<path d="M3602 5399 c-104 -52 -109 -197 -10 -260 47 -29 137 -23 174 12 55
51 70 136 33 196 -40 65 -127 88 -197 52z m129 -30 c18 -18 20 -29 15 -70 -11
-85 -54 -159 -91 -159 -24 0 -65 46 -65 73 0 38 28 122 51 151 25 32 61 34 90
5z"/>
<path d="M3890 5330 c0 -5 5 -10 10 -10 16 0 12 -15 -32 -120 -36 -85 -45
-100 -65 -100 -46 0 -21 -18 88 -64 l112 -48 23 29 23 28 1 -26 c0 -61 80
-129 150 -129 77 0 149 73 150 151 0 71 -79 149 -152 149 -54 0 -90 -21 -131
-78 -19 -27 -48 -54 -66 -61 -30 -13 -95 -8 -105 7 -5 8 70 189 87 210 5 7 18
10 28 7 11 -4 19 -2 19 3 0 9 -112 62 -131 62 -5 0 -9 -4 -9 -10z m380 -190
c11 -11 20 -31 20 -45 0 -61 -85 -175 -129 -175 -27 0 -54 36 -53 69 1 49 52
134 95 158 31 17 44 16 67 -7z"/>
<path d="M1823 5192 c-96 -53 -129 -81 -83 -69 20 5 23 2 119 -166 13 -22 13
-31 3 -47 -17 -27 -5 -25 61 11 64 34 85 56 44 45 -22 -5 -28 -1 -51 40 -14
26 -26 48 -26 50 0 11 46 2 62 -13 10 -9 21 -14 24 -10 7 6 -58 127 -68 127
-4 0 -8 -17 -10 -37 -4 -50 -20 -51 -48 -2 -22 41 -23 42 -4 56 32 23 63 26
90 8 14 -9 28 -15 30 -12 4 4 -35 78 -39 77 -1 -1 -48 -27 -104 -58z"/>
<path d="M2750 5115 c-306 -43 -597 -150 -845 -313 -474 -310 -806 -812 -911
-1377 -15 -81 -19 -147 -18 -345 0 -227 2 -255 28 -380 33 -161 81 -317 143
-460 69 -160 116 -232 284 -440 278 -344 658 -578 1136 -702 l128 -33 310 0
c284 1 319 3 414 23 223 49 479 152 671 271 346 215 641 563 799 943 192 461
212 954 56 1423 -107 323 -250 553 -504 805 -257 256 -533 420 -863 515 -265
77 -584 104 -828 70z m456 -45 c359 -23 736 -174 1044 -420 97 -78 239 -221
326 -330 312 -389 459 -861 426 -1366 -12 -174 -28 -265 -74 -424 -196 -668
-745 -1198 -1425 -1375 -172 -44 -301 -59 -508 -59 -377 1 -694 89 -1005 279
-763 464 -1132 1343 -923 2195 189 776 847 1370 1657 1495 98 16 292 18 482 5z"/>
<path d="M3527 4332 c-25 -28 -39 -115 -28 -181 23 -131 57 -240 84 -265 31
-29 34 -44 10 -62 -16 -12 -73 -20 -73 -10 0 2 7 20 15 40 21 50 2 45 -34 -8
-49 -71 -54 -91 -32 -132 16 -29 17 -42 9 -65 -18 -51 -120 -119 -179 -119
-13 0 -37 28 -72 83 -110 168 -217 245 -391 282 -139 28 -260 14 -377 -46 -75
-37 -225 -179 -262 -247 -37 -69 -77 -224 -77 -302 0 -116 49 -258 118 -342
98 -118 216 -194 360 -234 88 -24 100 -30 89 -41 -13 -12 -91 -3 -164 18 l-72
22 -31 -27 c-17 -14 -36 -26 -41 -26 -5 0 -9 22 -9 48 0 48 -1 49 -95 141 -73
72 -99 92 -112 86 -62 -26 -91 -9 -44 24 40 29 46 53 23 98 -11 21 -22 52 -26
68 -24 101 -25 103 -68 117 -52 18 -57 32 -18 48 44 18 55 40 84 164 l26 108
-25 30 c-31 37 -24 51 24 44 35 -6 38 -3 120 85 84 90 84 90 78 134 -8 58 6
65 47 26 l33 -32 47 21 c44 19 116 41 179 54 20 5 27 12 27 30 0 31 32 60 48
44 7 -7 12 -19 12 -27 0 -31 17 -40 117 -60 124 -26 129 -26 160 -1 37 29 43
25 43 -27 1 -47 2 -49 91 -132 84 -78 92 -83 124 -78 44 7 49 -2 24 -39 -28
-43 -25 -74 6 -74 21 0 30 9 50 53 31 65 31 104 2 141 -21 26 -29 29 -74 28
-47 -2 -53 0 -87 39 -34 37 -37 45 -35 92 l3 51 -79 38 -80 38 -32 -36 -31
-35 -59 23 c-48 19 -59 27 -61 50 -5 38 -25 51 -85 51 -85 0 -116 -11 -123
-41 -10 -41 -20 -49 -90 -72 l-65 -22 -24 26 c-13 14 -29 26 -35 26 -18 0 -85
-37 -119 -66 -30 -25 -32 -30 -26 -74 6 -45 5 -47 -40 -89 -44 -41 -49 -43
-90 -37 l-43 7 -35 -63 c-52 -94 -54 -105 -22 -138 25 -26 27 -33 21 -82 -8
-65 -12 -71 -56 -93 -47 -24 -50 -30 -50 -108 0 -82 10 -103 51 -112 24 -6 35
-16 49 -49 32 -75 32 -79 0 -98 -32 -18 -38 -44 -19 -79 9 -17 -2 -32 -83
-116 -51 -53 -88 -98 -81 -100 7 -3 54 24 105 60 120 83 118 81 118 61 0 -9
-35 -52 -77 -95 -42 -43 -74 -81 -71 -84 3 -3 62 33 132 80 70 47 133 85 139
85 7 -1 -42 -52 -108 -115 -66 -62 -117 -117 -113 -121 7 -7 42 15 211 131 37
26 71 44 75 40 4 -4 -27 -37 -68 -74 -131 -116 -195 -179 -188 -186 6 -7 121
67 192 124 40 32 76 41 76 19 0 -7 -37 -48 -82 -90 -45 -43 -77 -78 -71 -78 6
0 45 22 86 50 42 27 90 56 107 65 59 30 32 -10 -62 -95 -147 -131 -162 -155
-64 -100 31 18 56 27 56 20 0 -13 -123 -136 -192 -193 -55 -44 -67 -81 -43
-127 19 -37 69 -70 107 -70 31 0 79 44 98 90 10 24 10 40 2 68 -10 32 -9 41
12 77 14 22 41 60 62 84 l37 43 106 -3 106 -4 44 48 c39 42 87 77 106 77 3 0
5 -7 5 -16 0 -21 -51 -92 -165 -229 -265 -319 -335 -417 -335 -468 0 -14 -16
-48 -35 -76 -19 -28 -35 -60 -35 -71 0 -30 25 -75 52 -92 60 -39 114 -28 147
28 l20 33 44 -45 c55 -55 98 -60 139 -16 62 66 64 111 7 176 l-41 47 4 73 c4
89 13 104 206 337 129 155 167 193 184 183 15 -10 -21 -55 -123 -155 -100 -97
-138 -156 -139 -212 0 -19 -11 -39 -34 -60 -69 -65 -76 -121 -20 -173 54 -52
93 -48 160 16 50 47 56 50 107 50 66 0 117 -9 117 -21 0 -5 -16 -32 -35 -60
-40 -59 -44 -98 -15 -146 41 -68 145 -61 176 13 19 46 12 89 -23 140 -16 24
-27 54 -28 78 -1 23 -8 43 -18 51 -10 7 -68 14 -147 18 -113 5 -135 9 -168 29
l-37 23 398 5 397 5 23 27 c32 40 155 117 196 124 59 10 72 15 68 27 -2 7 -20
11 -41 11 -20 -1 -36 2 -36 7 0 16 39 29 85 29 46 0 84 13 97 34 11 16 -14 27
-46 20 -19 -4 -26 -3 -22 5 4 6 31 11 60 11 39 0 58 5 75 21 l22 21 -20 22
c-30 32 -26 44 17 51 58 10 62 12 80 52 15 34 17 92 20 516 l3 478 30 47 c33
53 36 77 12 87 -10 5 -92 10 -183 13 -91 2 -171 9 -177 14 -8 7 -13 36 -13 80
0 85 10 91 88 50 106 -56 236 -79 303 -54 34 13 79 68 79 96 0 35 -29 124 -67
206 -26 57 -45 83 -78 108 -25 18 -59 52 -77 76 -92 124 -366 239 -421 178z
m228 -367 c16 -22 24 -35 18 -30 -22 20 -93 110 -93 118 0 10 32 -28 75 -88z
m-919 -230 c28 -8 72 -29 99 -47 65 -43 162 -134 153 -143 -4 -4 -43 -8 -86
-9 -71 -1 -85 2 -162 38 -143 68 -245 51 -345 -55 -58 -62 -85 -120 -85 -184
0 -140 90 -256 235 -301 48 -16 54 -20 60 -52 3 -19 3 -52 0 -74 l-7 -41 -47
6 c-84 10 -155 44 -225 108 -186 171 -192 459 -14 639 107 108 286 156 424
115z m778 -17 c8 -41 -3 -100 -18 -95 -6 2 -19 25 -29 51 -13 37 -15 52 -6 62
21 25 46 16 53 -18z m-69 -107 c7 -12 -12 -24 -25 -16 -11 7 -4 25 10 25 5 0
11 -4 15 -9z m-815 -82 c0 -23 -54 -109 -72 -115 -28 -9 -58 -63 -58 -106 0
-32 7 -42 44 -74 56 -46 76 -88 53 -111 -14 -14 -20 -13 -67 13 -63 34 -99 79
-116 144 -25 98 17 172 129 226 78 37 87 40 87 23z m1128 -86 c78 -6 83 -7 90
-32 9 -35 9 -878 -1 -913 -9 -33 -44 -45 -90 -31 -38 10 -50 47 -18 56 36 9
41 64 41 453 0 351 -1 373 -19 395 l-19 24 -477 0 c-462 0 -477 -1 -491 -20
-12 -16 -14 -86 -12 -424 l3 -406 30 -14 c22 -11 82 -17 222 -21 183 -5 224
-11 194 -30 -34 -20 -490 -24 -510 -4 -20 19 -22 526 -5 862 l6 112 486 0
c268 0 524 -3 570 -7z m-755 -119 c4 -4 -13 -19 -36 -35 -49 -32 -81 -83 -97
-153 -13 -58 1 -112 31 -121 23 -8 24 -18 5 -35 -8 -6 -22 -31 -32 -55 -15
-41 -15 -46 2 -82 19 -39 74 -83 103 -83 9 0 41 16 71 35 81 52 90 49 90 -30
0 -81 20 -131 57 -147 41 -17 378 -17 395 0 16 16 25 308 11 361 -15 58 -50
75 -161 81 l-97 5 -6 50 c-8 68 -39 125 -91 169 l-43 36 242 0 c160 0 244 -4
248 -11 11 -16 19 -513 10 -621 l-7 -98 -424 0 c-395 0 -425 1 -432 18 -4 9
-7 172 -7 362 l0 345 35 6 c49 9 125 10 133 3z m140 -47 c73 -31 138 -114 136
-174 -1 -24 -2 -23 -11 11 -13 47 -88 127 -135 143 -57 20 -143 -42 -181 -129
-15 -37 -30 -36 -24 1 5 38 50 91 109 130 52 35 61 36 106 18z m13 -121 c41
-41 42 -63 9 -112 -14 -20 -25 -47 -25 -59 0 -13 -7 -26 -17 -29 -22 -9 -123
58 -123 82 0 67 56 152 100 152 12 0 37 -15 56 -34z m388 -311 c7 -99 -1 -195
-15 -173 -5 7 -8 78 -8 158 0 156 12 163 23 15z m-519 75 c18 -20 18 -21 -5
-45 -53 -57 -115 -9 -67 53 14 18 52 14 72 -8z m-557 -321 c31 -12 28 -30 -17
-73 -43 -42 -85 -55 -175 -56 -52 0 -57 2 -45 16 7 8 29 24 48 34 20 10 53 36
74 59 40 43 48 44 115 20z m922 -99 c8 -16 8 -20 -4 -20 -9 0 -20 9 -26 20 -8
16 -8 20 4 20 9 0 20 -9 26 -20z m188 3 c5 -17 -26 -29 -40 -15 -6 6 -7 15 -3
22 9 14 37 9 43 -7z m-928 -112 c0 -5 -43 -62 -96 -128 -245 -303 -254 -319
-254 -430 0 -60 -5 -85 -20 -110 -11 -18 -24 -33 -29 -33 -16 0 -71 73 -71 95
0 11 13 43 29 70 58 100 416 545 438 545 2 0 3 -4 3 -9z m980 -18 c162 -13 33
-21 -375 -21 -347 0 -396 1 -370 13 23 11 100 14 345 14 173 1 353 -2 400 -6z
m-224 -145 c-73 -66 -86 -74 -86 -54 0 8 8 20 19 25 10 6 37 26 60 46 67 55
72 41 7 -17z m-573 22 c-18 -11 -33 -24 -33 -30 0 -12 -98 -90 -113 -90 -22 1
145 140 167 140 6 0 -4 -9 -21 -20z m119 4 c-24 -17 -39 -14 -27 5 3 6 16 11
28 11 l21 0 -22 -16z m138 12 c0 -2 -15 -9 -32 -15 -30 -10 -31 -9 -14 4 18
14 46 20 46 11z m106 -11 c-21 -16 -32 -13 -21 4 3 6 14 11 23 11 15 -1 15 -2
-2 -15z m133 11 c-2 -2 -15 -9 -29 -16 -23 -12 -24 -12 -11 3 7 10 20 17 29
17 8 0 13 -2 11 -4z m246 -6 c-3 -5 -16 -10 -28 -10 -18 0 -19 2 -7 10 20 13
43 13 35 0z m-679 -58 c-3 -6 -30 -27 -59 -47 l-52 -36 53 51 c29 29 55 50 58
47 4 -3 3 -10 0 -15z m242 6 c-3 -7 -26 -28 -53 -47 -38 -27 -45 -30 -37 -14
22 41 101 94 90 61z m359 -11 c-6 -16 -67 -41 -67 -27 0 9 63 51 68 45 3 -2 2
-11 -1 -18z m-506 -15 c-19 -15 -48 -36 -65 -47 -29 -18 -30 -18 -16 -1 20 25
90 76 104 76 6 0 -4 -13 -23 -28z m259 8 c-14 -11 -34 -20 -45 -20 -17 0 -15
4 10 20 40 26 69 26 35 0z m-1222 -41 c4 -19 -27 -34 -41 -20 -14 14 0 43 20
39 10 -2 19 -10 21 -19z m1132 -14 c-7 -9 -15 -13 -19 -10 -3 3 1 10 9 15 21
14 24 12 10 -5z m-447 -92 c-18 -2 -48 -2 -65 0 -18 2 -4 4 32 4 36 0 50 -2
33 -4z m137 3 c0 -3 -4 -8 -10 -11 -5 -3 -10 -1 -10 4 0 6 5 11 10 11 6 0 10
-2 10 -4z m-284 -181 c4 -8 0 -22 -7 -31 -11 -13 -14 -13 -27 0 -17 17 -9 46
13 46 9 0 18 -7 21 -15z m332 -183 c2 -14 -2 -22 -12 -22 -19 0 -29 17 -22 36
8 22 30 12 34 -14z m-740 -49 c-10 -13 -13 -13 -17 -2 -2 8 -10 18 -18 22 -11
7 -12 11 -1 24 11 13 14 12 30 -7 15 -18 16 -25 6 -37z m222 32 c0 -17 -43
-38 -48 -23 -5 12 18 38 34 38 8 0 14 -7 14 -15z"/>
<path d="M2810 3681 c0 -11 5 -23 10 -26 6 -4 10 5 10 19 0 14 -4 26 -10 26
-5 0 -10 -9 -10 -19z"/>
<path d="M2890 3641 c0 -11 39 -41 53 -41 13 0 -12 29 -35 41 -12 6 -18 6 -18
0z"/>
<path d="M3960 4197 c0 -23 70 -97 92 -97 17 0 19 4 14 28 -12 51 -106 112
-106 69z"/>
<path d="M1577 5039 c-105 -55 -103 -208 3 -261 94 -48 208 15 217 119 11 123
-110 200 -220 142z m108 -61 c32 -38 65 -101 65 -124 0 -47 -64 -69 -108 -39
-26 19 -76 90 -87 123 -27 87 67 115 130 40z"/>
<path d="M4415 4986 c-41 -18 -83 -69 -91 -111 -13 -69 38 -146 120 -180 l39
-16 32 31 c21 20 37 28 48 24 34 -12 15 12 -40 54 -54 41 -80 49 -53 17 11
-13 10 -20 -7 -43 -25 -34 -50 -34 -76 -1 -17 24 -18 31 -7 64 17 52 99 135
133 135 41 0 67 -35 67 -92 0 -26 3 -48 8 -48 7 0 62 65 62 74 0 4 -8 6 -17 6
-10 0 -31 16 -47 36 -46 58 -110 77 -171 50z"/>
<path d="M4690 4813 c-1 -94 -81 -234 -122 -212 -33 17 -19 -6 33 -56 37 -36
49 -44 45 -28 -5 15 1 31 24 56 25 29 43 38 106 52 42 9 85 15 95 12 28 -7 23
5 -16 43 -19 19 -35 29 -35 23 0 -7 5 -15 10 -18 17 -11 1 -24 -43 -35 -23 -6
-50 -13 -59 -16 -15 -5 -15 0 4 56 17 51 23 60 39 55 10 -4 19 -3 19 1 0 11
-82 94 -92 94 -4 0 -8 -12 -8 -27z"/>
<path d="M1224 4723 c-50 -54 -119 -136 -155 -182 l-64 -83 34 -29 c39 -32 51
-30 32 5 -14 25 -12 68 4 73 6 2 48 -28 95 -65 67 -54 84 -73 82 -91 -3 -32
10 -24 58 37 40 51 48 79 15 52 -13 -11 -30 -1 -110 60 -78 60 -93 75 -83 87
7 9 26 13 49 12 49 -4 56 4 24 25 -26 17 -33 36 -14 36 6 0 47 -35 91 -77 63
-62 78 -83 75 -101 -2 -12 -1 -21 3 -20 4 2 44 42 88 89 l82 87 -22 28 c-38
51 -40 51 -33 7 5 -35 2 -50 -15 -78 -27 -44 -47 -44 -90 0 -29 30 -32 37 -20
45 20 13 37 12 61 0 33 -18 21 4 -29 53 -46 45 -73 55 -50 17 6 -9 8 -29 4
-45 l-7 -28 -42 41 c-41 41 -41 41 -21 63 26 29 54 38 83 27 13 -5 26 -6 29
-3 7 7 -39 55 -53 55 -6 0 -52 -44 -101 -97z"/>
<path d="M958 4390 c-30 -49 -30 -58 0 -39 17 11 31 6 102 -36 99 -58 115 -88
72 -137 -24 -28 -51 -22 -137 30 -64 39 -80 53 -78 70 11 99 -135 -179 -217
-413 -16 -44 -40 -127 -55 -184 -23 -85 -25 -105 -14 -112 11 -7 11 -9 -3 -9
-9 0 -16 -8 -16 -17 0 -10 -5 -39 -13 -64 -11 -42 -11 -50 5 -73 20 -31 61
-49 92 -42 12 3 44 31 69 61 48 56 73 67 94 41 27 -33 -17 -96 -66 -96 -14 0
-23 -6 -23 -15 0 -8 8 -15 18 -15 9 0 33 -3 53 -6 34 -6 36 -5 37 22 0 16 3
52 7 80 6 45 4 54 -18 79 -19 22 -33 29 -62 29 -38 0 -44 -5 -122 -99 -30 -35
-57 -30 -61 11 -2 25 3 37 24 53 15 11 32 21 39 21 26 0 26 32 0 52 -15 11
-25 30 -25 45 0 28 -5 28 141 -10 71 -19 84 -25 87 -44 6 -40 18 -25 36 47 19
72 16 98 -7 66 -12 -16 -19 -16 -122 10 -61 15 -111 28 -113 30 -12 9 24 46
49 51 41 8 45 20 9 28 -16 4 -30 11 -30 16 0 13 5 12 120 -29 76 -27 105 -42
105 -54 1 -50 27 -6 59 100 9 26 -8 30 -22 5 -9 -14 -20 -12 -117 22 -97 35
-128 55 -112 72 4 3 20 0 37 -7 39 -16 48 -8 21 19 -12 12 -21 33 -21 47 0 33
13 30 134 -25 67 -31 86 -45 86 -61 0 -37 17 -20 45 45 27 63 28 96 2 62 -11
-15 -22 -12 -119 29 -60 25 -108 50 -108 55 0 16 50 41 70 36 33 -9 34 13 1
26 -30 11 -42 27 -21 27 6 0 45 -20 88 -45 93 -55 135 -59 174 -17 81 86 62
139 -79 224 -43 25 -62 43 -65 60 -3 21 -6 18 -30 -22z"/>
<path d="M4920 4404 c-63 -14 -127 -23 -142 -21 -33 4 -34 3 -7 -39 21 -35 43
-47 32 -18 -6 17 12 34 39 34 9 0 26 -16 38 -35 17 -28 19 -38 10 -55 -9 -17
-18 -20 -37 -15 -28 7 -29 9 32 -81 23 -33 47 -75 54 -92 14 -34 33 -35 24 -3
-4 16 9 26 70 55 41 20 77 36 80 36 3 0 -20 -56 -51 -125 -30 -69 -53 -127
-50 -130 3 -3 58 20 122 50 94 45 121 53 132 44 25 -21 26 -2 3 43 -22 41 -23
42 -29 18 -4 -17 -23 -34 -59 -53 -29 -16 -54 -27 -57 -25 -2 3 14 45 37 94
40 87 41 90 27 128 -17 47 -33 56 -42 23 -4 -18 -27 -34 -95 -65 -49 -23 -96
-42 -105 -42 -18 0 -32 42 -20 62 4 7 38 61 76 120 37 59 68 109 68 112 0 9
-28 5 -150 -20z m28 -49 c-13 -19 -26 -35 -30 -35 -9 0 -39 43 -33 48 3 4 57
18 78 21 4 1 -3 -15 -15 -34z"/>
<path d="M5297 3931 c-3 -14 -32 -28 -106 -52 -87 -29 -105 -32 -122 -21 -12
8 -22 12 -24 10 -6 -6 43 -148 60 -174 74 -113 255 -65 255 68 0 46 -38 188
-50 188 -4 0 -10 -9 -13 -19z m34 -108 c3 -36 -3 -49 -31 -75 -30 -28 -85 -48
-132 -48 -24 0 -68 39 -68 61 0 7 192 77 218 78 6 1 13 -7 13 -16z"/>
<path d="M5321 3473 c-12 -10 -31 -45 -44 -78 -21 -55 -26 -60 -53 -60 -26 0
-29 3 -32 37 -3 31 2 40 32 65 20 15 36 31 36 35 0 10 -92 -2 -105 -14 -6 -6
-6 -11 0 -16 6 -4 10 -31 11 -61 1 -48 5 -58 33 -83 l32 -29 -20 -25 c-25 -32
-35 -82 -27 -129 8 -42 54 -101 69 -86 6 6 1 20 -17 41 -29 35 -33 75 -11 107
29 42 165 50 210 13 36 -30 21 -93 -29 -120 -42 -22 -32 -35 24 -32 46 4 62
13 42 26 -5 3 -4 27 1 53 9 41 7 55 -11 96 -17 38 -30 52 -64 67 -24 11 -51
20 -61 20 -12 0 -15 4 -10 12 4 7 17 38 28 68 15 42 25 56 42 58 16 2 26 -4
34 -21 13 -30 1 -59 -36 -83 -35 -23 -22 -35 28 -28 23 4 43 7 44 8 1 1 -2 30
-7 65 -11 76 -37 111 -86 111 -17 0 -41 -8 -53 -17z"/>
<path d="M577 3303 c-11 -10 -8 -83 3 -83 6 0 13 7 16 15 5 11 23 15 76 15
l71 0 -87 -66 c-96 -74 -90 -58 -86 -219 2 -84 11 -110 29 -77 9 16 25 20 117
26 105 7 108 7 126 -16 l18 -23 0 35 c0 74 -13 200 -21 200 -5 0 -9 -6 -9 -14
0 -19 -22 -22 -108 -16 l-73 5 111 84 c60 46 110 88 110 92 0 5 -24 9 -52 9
-116 0 -218 13 -218 26 0 15 -12 18 -23 7z m231 -259 c13 -2 22 -12 22 -23 0
-23 -41 -31 -157 -31 -70 0 -82 3 -86 18 -8 37 16 47 110 44 48 -1 98 -5 111
-8z"/>
<path d="M5186 2963 c-11 -138 -28 -267 -42 -322 -14 -59 -10 -83 11 -55 11
16 18 17 71 5 121 -27 121 -26 -15 -89 -68 -31 -124 -61 -125 -66 0 -5 51 -24
115 -41 130 -36 139 -40 139 -61 0 -31 18 -11 29 32 13 52 8 67 -13 39 -13
-17 -18 -18 -70 -5 -31 7 -59 16 -61 20 -2 4 37 25 88 48 89 39 92 42 104 83
15 50 12 55 -17 39 -18 -10 -40 -7 -121 15 -55 15 -102 31 -105 36 -7 12 9 11
40 -1 34 -13 34 7 1 39 -19 18 -25 33 -25 68 l0 46 51 -6 c29 -4 54 -9 57 -11
12 -12 -10 -37 -38 -42 -44 -9 -37 -22 18 -29 26 -3 59 -9 75 -11 34 -7 36 12
2 28 -16 7 -25 19 -25 33 0 20 3 21 45 15 25 -4 48 -10 52 -13 3 -4 1 -25 -6
-47 -10 -33 -18 -42 -42 -47 -42 -8 -31 -27 18 -31 l40 -3 16 124 c19 140 22
267 7 267 -5 0 -10 -7 -10 -15 0 -12 -14 -15 -67 -15 -103 0 -173 11 -173 26
0 7 -4 15 -9 18 -5 4 -12 -29 -15 -71z m255 -59 c12 -7 11 -51 -1 -59 -14 -9
-209 17 -228 31 -9 7 -13 18 -8 29 6 16 16 17 118 11 61 -3 115 -9 119 -12z"/>
<path d="M850 2757 c0 -8 -52 -50 -115 -96 -63 -45 -115 -86 -115 -91 0 -12
14 -15 155 -40 65 -11 125 -26 132 -32 21 -17 25 -4 13 42 -10 38 -25 47 -25
17 0 -14 -44 -22 -55 -10 -4 4 -11 26 -14 48 -6 34 -4 42 15 54 20 12 24 11
36 -5 19 -26 26 -11 15 32 -6 22 -13 51 -16 67 -6 27 -26 38 -26 14z m-47
-174 c3 -16 4 -29 3 -30 -1 -1 -19 0 -41 4 l-38 6 29 24 c37 29 41 29 47 -4z"/>
<path d="M855 2448 c-26 -15 -35 -28 -35 -55 0 -22 -1 -22 -34 -6 -32 15 -37
15 -60 -1 -35 -22 -34 -72 0 -165 25 -68 44 -91 44 -53 0 26 204 100 225 82 8
-7 15 -20 15 -29 0 -9 -41 -67 -91 -129 -50 -62 -89 -116 -85 -119 4 -4 68 -1
142 5 93 8 142 8 155 1 26 -13 25 6 -3 51 l-22 35 -6 -25 c-9 -39 -47 -33 -73
12 -21 36 -21 37 -3 57 18 20 20 20 38 5 25 -24 23 -3 -7 56 -14 28 -40 90
-57 138 -20 57 -43 98 -64 120 -34 34 -48 38 -79 20z m93 -80 c22 -22 13 -36
-35 -52 -26 -9 -50 -16 -55 -16 -16 0 -8 59 10 69 23 14 65 14 80 -1z m-130
-50 c19 -19 14 -28 -23 -44 -47 -19 -65 -18 -65 5 0 37 62 65 88 39z m190
-282 c13 -30 7 -36 -35 -36 l-34 0 21 30 c26 36 33 37 48 6z"/>
<path d="M5102 2323 c-37 -7 -98 -75 -106 -117 -7 -39 8 -106 25 -106 5 0 7
22 3 53 -8 70 15 102 73 101 38 -1 112 -32 146 -62 44 -39 -4 -122 -72 -122
-35 0 -33 -19 5 -35 50 -20 67 -20 59 4 -3 11 1 24 10 31 44 37 58 116 30 173
-27 57 -107 94 -173 80z"/>
<path d="M4915 2032 c-33 -57 -65 -112 -71 -123 -6 -11 -21 -29 -33 -40 -56
-53 -62 -121 -14 -159 35 -27 58 -25 126 11 64 34 97 32 97 -5 0 -33 -29 -54
-80 -58 l-45 -3 40 -28 c28 -19 41 -23 44 -15 2 7 19 30 37 51 38 41 43 79 18
115 -30 43 -60 46 -132 12 -36 -17 -73 -28 -83 -25 -27 9 -32 36 -11 65 17 21
27 25 71 24 28 -1 51 2 51 6 0 4 -7 24 -15 45 -13 29 -14 43 -5 71 6 18 16 36
21 40 11 6 99 -36 99 -47 0 -16 -32 -31 -55 -27 -14 3 -27 2 -30 -1 -5 -9 114
-75 121 -68 3 3 -2 17 -11 31 -11 16 -14 30 -8 40 7 13 14 12 47 -7 22 -12 41
-27 43 -33 2 -6 -8 -26 -23 -44 -22 -26 -32 -31 -55 -26 -43 8 -43 -8 1 -33
l38 -21 61 106 c34 59 60 109 57 111 -2 2 -13 -1 -23 -8 -17 -10 -33 -4 -113
42 -70 40 -96 60 -100 79 -5 22 -13 12 -65 -78z"/>
<path d="M1090 1922 c-15 -12 -22 -29 -22 -54 0 -35 0 -35 -28 -25 -24 9 -33
8 -49 -8 -36 -31 -27 -74 31 -162 51 -75 53 -77 58 -49 4 22 24 42 93 89 77
53 91 60 108 49 32 -20 23 4 -28 75 -46 64 -92 103 -124 103 -9 0 -27 -8 -39
-18z m111 -52 c10 -6 19 -17 19 -24 0 -18 -78 -69 -96 -62 -23 9 -16 53 12 75
30 24 38 25 65 11z m-101 -95 c7 -9 11 -17 9 -18 -66 -51 -99 -56 -99 -18 0
22 35 51 61 51 9 0 22 -7 29 -15z"/>
<path d="M4698 1658 c-53 -18 -72 -113 -30 -151 55 -50 129 -40 157 19 18 39
15 70 -12 103 -22 27 -78 41 -115 29z m70 -92 c5 -24 -10 -38 -31 -30 -20 7
-22 25 -5 42 16 16 32 10 36 -12z"/>
<path d="M1427 1502 c-65 -72 -36 -172 50 -172 46 1 78 25 99 76 12 29 13 42
4 59 -27 50 -120 73 -153 37z m73 -78 c0 -27 -25 -43 -42 -26 -8 8 -6 18 6 37
20 30 36 25 36 -11z"/>
<path d="M4462 1508 c-16 -16 -15 -21 7 -71 23 -49 61 -157 56 -157 -2 0 -45
20 -96 45 -101 49 -111 52 -128 31 -9 -10 -7 -21 6 -45 10 -17 21 -31 26 -31
4 0 7 -4 7 -9 0 -6 13 -29 30 -53 53 -77 64 -88 78 -79 12 7 11 13 -1 38 -9
16 -23 35 -31 42 -9 8 -16 19 -16 26 0 8 -4 15 -8 17 -4 2 -18 17 -30 34 l-22
32 100 -50 c55 -28 107 -47 115 -44 15 5 21 47 8 60 -4 3 -8 12 -9 19 -2 10
-24 70 -50 132 -6 16 -5 18 7 9 35 -26 115 -90 128 -102 7 -7 20 -11 28 -8 8
3 17 6 19 6 2 0 4 4 4 9 0 12 -189 161 -204 161 -7 0 -17 -5 -24 -12z"/>
<path d="M1630 1398 c-6 -18 -16 -42 -20 -53 -5 -11 -21 -57 -37 -102 -26 -78
-27 -83 -11 -99 15 -15 21 -16 45 -5 55 24 233 126 233 133 0 22 -43 15 -96
-15 -33 -18 -80 -46 -105 -60 l-47 -27 29 83 c51 141 52 148 36 164 -12 12
-16 10 -27 -19z"/>
<path d="M1864 1242 c-15 -11 -64 -80 -64 -90 0 -6 -3 -12 -7 -14 -13 -5 -60
-72 -67 -95 -5 -16 -2 -22 11 -25 18 -4 53 30 53 51 0 6 4 11 8 11 5 0 15 12
23 28 8 15 16 29 19 32 11 10 47 65 53 82 6 17 -13 31 -29 20z"/>
<path d="M4136 1237 c-17 -13 -17 -18 -2 -93 8 -43 18 -105 22 -136 7 -60 9
-64 33 -49 10 7 12 21 8 54 -6 44 -6 44 41 74 l48 30 37 -20 c43 -22 87 -16
66 10 -7 8 -30 22 -51 30 -21 8 -38 18 -38 22 0 3 -17 15 -37 26 -21 11 -52
30 -69 42 -36 27 -35 27 -58 10z m96 -79 c15 -7 28 -15 28 -18 0 -5 -66 -50
-74 -50 -4 0 -26 92 -26 111 0 5 10 1 22 -11 12 -11 34 -26 50 -32z"/>
<path d="M1925 1146 c-22 -22 -23 -29 -14 -53 5 -15 23 -45 40 -65 33 -41 36
-60 14 -78 -20 -17 -58 -6 -99 30 -28 25 -36 28 -45 16 -18 -22 58 -77 115
-84 87 -9 110 51 49 131 -42 55 -45 84 -9 93 18 5 34 0 54 -15 16 -11 34 -21
40 -21 19 0 10 32 -10 37 -11 3 -20 10 -20 15 0 5 -4 7 -9 3 -5 -3 -12 -1 -16
5 -12 19 -65 11 -90 -14z"/>
<path d="M3971 1141 c-11 -7 -12 -13 -4 -23 5 -7 29 -47 52 -90 36 -66 39 -76
21 -71 -11 3 -20 10 -20 15 0 5 -4 6 -10 3 -5 -3 -10 -3 -10 2 0 4 -24 19 -52
32 -29 13 -65 32 -80 43 -29 20 -68 17 -68 -5 0 -26 93 -227 106 -227 25 0 22
17 -17 105 -21 49 -39 91 -39 93 0 4 84 -41 90 -49 3 -4 35 -21 72 -38 55 -26
71 -30 88 -21 21 11 21 12 -16 78 -21 37 -49 88 -63 114 -28 52 -29 52 -50 39z"/>
<path d="M2154 991 c-38 -36 -85 -78 -103 -93 -29 -25 -31 -30 -17 -43 13 -13
18 -12 48 15 38 35 46 36 98 10 39 -20 46 -32 52 -90 2 -14 10 -26 20 -28 16
-3 17 9 15 137 -2 130 -3 141 -22 149 -18 8 -32 -1 -91 -57z m73 -97 c-6 -6
-77 25 -77 34 0 4 17 25 38 47 l37 39 3 -58 c2 -32 1 -60 -1 -62z"/>
<path d="M3653 1006 c-56 -18 -93 -36 -93 -44 0 -10 8 -12 33 -6 17 4 38 7 46
8 9 1 26 -35 50 -106 19 -60 38 -108 41 -108 3 0 11 4 19 9 12 8 8 27 -22 115
-21 58 -37 107 -37 109 0 2 18 10 40 17 22 7 40 19 40 27 0 17 -9 16 -117 -21z"/>
<path d="M2395 980 c-3 -5 -8 -18 -10 -27 -1 -10 -18 -60 -36 -111 -27 -78
-30 -95 -18 -103 23 -14 27 -11 44 41 28 83 43 81 87 -11 28 -61 42 -79 57
-79 18 0 19 3 10 27 -6 15 -14 32 -19 38 -5 6 -18 32 -29 58 l-20 47 67 43
c61 38 65 42 40 45 -19 2 -49 -11 -98 -42 -38 -25 -70 -45 -70 -43 0 1 7 24
15 51 8 27 15 55 15 63 0 15 -26 18 -35 3z"/>
<path d="M3463 952 c-22 -3 -27 -15 -39 -97 -3 -22 -14 -73 -24 -113 l-18 -73
21 3 c17 2 25 14 33 47 10 43 12 45 62 56 l51 12 31 -33 c29 -33 49 -41 63
-27 6 5 -34 67 -53 83 -3 3 -28 37 -55 75 -39 55 -55 69 -72 67z m42 -88 c19
-26 33 -49 32 -50 -1 -2 -22 -7 -46 -13 l-43 -9 8 46 c4 26 7 55 8 64 0 20 -2
22 41 -38z"/>
<path d="M2625 928 c-4 -13 -29 -143 -40 -209 -5 -33 4 -49 30 -49 1 0 8 27
14 61 l12 61 42 -6 c23 -3 57 -9 75 -12 l32 -6 -6 -59 c-6 -55 -5 -59 14 -59
25 0 28 16 37 163 5 93 4 97 -15 97 -17 0 -20 -7 -20 -39 0 -74 -1 -74 -105
-56 -11 2 -26 4 -33 4 -10 1 -12 12 -7 48 3 26 8 50 10 54 3 4 -2 10 -11 13
-22 8 -24 8 -29 -6z"/>
<path d="M3210 911 c-40 -7 -38 3 -25 -173 6 -81 8 -88 28 -88 20 0 22 4 19
50 -4 47 -3 49 25 55 55 13 81 27 92 51 36 79 -26 126 -139 105z m103 -42 c17
-27 0 -66 -34 -78 -18 -6 -37 -11 -44 -11 -12 0 -28 87 -18 103 9 14 85 3 96
-14z"/>
<path d="M2960 843 c-13 -32 -38 -88 -57 -125 -18 -37 -33 -70 -33 -73 0 -3 9
-5 20 -5 13 0 27 14 40 40 20 39 21 40 74 40 53 0 55 -1 73 -37 11 -24 26 -39
40 -41 22 -3 22 -2 9 36 -8 22 -28 67 -45 101 -16 34 -30 62 -30 64 0 1 -4 14
-10 30 -7 19 -18 27 -34 27 -19 0 -28 -11 -47 -57z m90 -90 c0 -2 -20 -3 -44
-3 l-45 0 22 59 21 58 23 -56 c13 -31 23 -57 23 -58z"/>
</g>
</svg>
