<svg id="Layer_1" data-name="Layer 1" xmlns="http://www.w3.org/2000/svg" viewBox="0 0 497.6 498"><defs><style>.cls-1{font-size:33.16px;font-family:BerlinSansFBDemi-Bold, Berlin Sans FB Demi;font-weight:700;}</style></defs><path d="M250.7,16.7c-1.6,2.8-8.2,21.4-9.8,27.8-1.2,4.8-2.2,5.5-7.4,5.4-8.3,0-16.7-8.4-21.6-21.4-1.1-3.1-2.7-5.9-3.5-6.2-1.7-.6-15.2,1.2-20.6,2.9l-3.7,1.1.6,17.2c.3,9.4.3,18.3,0,19.7-1,3.6-8.8,6.1-13.4,4.2C167,65.7,159,60.2,159,59c0-.5-3.1-4.2-7-8.2l-6.9-7.3-8.3,4.4c-10.8,5.7-11,5.9-9.8,8.1a13.33,13.33,0,0,1,1,5.4,44.08,44.08,0,0,0,1.6,9.3,143.29,143.29,0,0,1,3.9,17.5c.5,4.2.3,5.1-1.9,7.3-5.2,5.2-16.6,2-27.2-7.6-5.9-5.3-9.1-7.1-11.1-6.5-1,.3-5.3,4.1-9.6,8.4l-7.8,7.8,3.9,7c2.1,3.8,5.1,8.9,6.7,11.4,5.1,8,6.4,15.8,3.2,19.7-1.5,2-13.8,1.6-20.4-.6-12.8-4.1-18.7-4.9-19.7-2.9-.3.7-1.7,3.1-3.1,5.3s-3.3,5.7-4.4,7.8c-1.9,3.6-1.9,4-.3,6.6,2.5,4.1,7.9,10.5,15,17.7l6.3,6.4-.3,6.2-.3,6.3-8.4.1c-8,.2-25.4,2.7-29.6,4.4-1.5.6-2.4,2.7-3.8,8.9-1,4.4-1.6,8.5-1.3,8.9s4.2,3.2,8.8,6.1,11.2,7.2,14.8,9.5c7.6,4.8,9.9,8.2,8.5,12.2s-6,6.2-16.2,8.4c-4.9,1.1-11.7,2.8-15.3,3.8l-6.5,1.9-.3,11.6c-.3,11.2-.2,11.6,2,12.9,3,1.7,9.8,3.8,12.3,3.8,3.8,0,16,4.3,17.8,6.2,1.1,1.4,1.7,3.7,1.7,6.9,0,4.3-.4,5.3-3.8,8.6-2.1,2.1-7.4,5.8-11.9,8.3-9,4.9-11.3,7.8-11.3,13.7.1,5.4,4.1,14.5,7.1,16,1.6.9,7.5,1.3,17.5,1.3,17.7,0,18.4.3,18.4,8.7,0,6.2-2.2,9.7-12.1,19s-9.7,9.2-5.1,16.1a87.47,87.47,0,0,1,5.7,9.4c1.2,2.7,2.4,3.8,4,3.8,3,0,20.5-4.4,23.2-5.8,1.2-.7,4.1-1.2,6.6-1.2,5.2,0,8.7,3,8.7,7.5,0,2.9-4.9,12.5-10.5,20.5a42.84,42.84,0,0,0-4.4,7.7c-1.6,3.9-.6,5.5,9.1,15.1l6.4,6.3,6.5-2.9a107.85,107.85,0,0,0,13.2-7.6c6-4.1,7.3-4.6,12.2-4.6,4.2,0,6,.5,7.6,2.1,2.6,2.6,2.1,6.2-2.7,19.8-1.9,5.3-3.4,11.2-3.4,13.1,0,3.2.6,3.9,6.3,7.7,7,4.8,13.2,8.3,14.7,8.3.5,0,4.2-2.9,8.1-6.5s7.4-6.5,7.9-6.5,1.7-2.3,3-5.1l2.2-5.2,6.5.6c3.6.2,7,1,7.6,1.6s1.2,5,1.3,10.9c.1,5.3.5,13.5,1,18.2l.9,8.5,5.5,1.7c8.6,2.6,14.8,3.8,16.4,3.2,2.5-.9,12.2-17.7,15.5-26.5,1.1-3.1,3.3-3.7,12.1-2.9,8,.6,8.4,1.3,9.9,15.8,1.1,10.3,2.8,16.1,5.8,19.4,1.3,1.5,3.3,1.8,11.9,1.8H275l2.4-4.8a56.35,56.35,0,0,0,5.6-23.5c0-4.1.5-6.8,1.3-7.5,1.3-1.1,14.2-2.1,14.9-1.2.2.3,2.3,4.5,4.7,9.5a119.46,119.46,0,0,0,8.3,14.2c5.1,6.9,7.9,7.5,19.4,3.8l8.7-2.8-.4-18.5-.4-18.6,3.5-.9a72.22,72.22,0,0,1,8.7-1.4c5.1-.5,5.2-.4,7.6,3.4a106,106,0,0,0,10.5,11.6l7.9,7.9,4.8-1.6c5.4-1.9,8.8-4.3,12.8-9.2,3-3.6,3-4.7-.8-13.9-4.2-10.1-6.4-17.9-5.8-20.2,1.3-5.5,8.6-9.3,15.1-7.8,1.6.3,6.3,2.7,10.3,5.4a122.51,122.51,0,0,0,12.2,6.9c4.3,2,5,2.1,7.5.8,4.3-2.2,13.5-12.4,12.8-14.2a10.35,10.35,0,0,1-.6-2.4c0-.4-2.5-4.4-5.6-9-9.8-14.3-11.2-19.9-6.5-25.9,1.7-2.2,2.5-2.4,8.8-2.3a49.16,49.16,0,0,1,10.3,1.3c8.9,2.7,17.6,4.6,19,4.1,2.2-.8,6-4.4,6-5.8a3.62,3.62,0,0,1,1.4-2.3c.7-.6,2.1-3.2,3.1-5.6l1.7-4.5-3.4-3.3a49.42,49.42,0,0,1-6.1-6.9c-1.5-2-3.5-3.9-4.4-4.2-2.1-.7-7.3-9.5-7.3-12.4,0-3.4,2.9-9.1,5.6-10.8,2.2-1.5,4.5-1.6,16.9-1.1,18.3.7,18.7.5,19.3-11.6.3-8,.3-8.3-2.8-12S484.9,305,481.6,305c-1.9,0-3.6-5.9-3.6-12.7,0-8.1.2-8.3,8.1-8.3,6.9,0,21.6-3.9,22.9-6.1.4-.5.8-5.6.9-11.2s.4-11,.7-11.9a2.38,2.38,0,0,0-1.5-2.7c-2-1.1-14-4.9-22.4-7.1-6.4-1.7-7.7-3.2-7.7-8.6,0-3.4.6-5,2.3-6.5,3.5-3.3,18.5-12.6,21.3-13.3,2.5-.7,2.6-.9,2-5.9-1.5-12.5-3-18.7-4.8-20.4-1.6-1.4-4.4-1.7-17.6-1.9-8.7-.1-16.8-.4-17.9-.8-1.3-.4-2.6-2.1-3.3-4.2-1-3-.9-3.9,1-6.9s3.5-4.7,9.8-9.5a26.18,26.18,0,0,0,3.8-4.5,34.14,34.14,0,0,1,5.1-5.9c1.8-1.6,3.3-3.4,3.3-3.9s-2-4.3-4.4-8.4a65.72,65.72,0,0,1-5.1-9.3c-.8-2.5-5.1-2.6-10.3-.4-5.6,2.4-15.9,4.4-22.8,4.4-5,0-6.4-.4-8.1-2.3-4.3-4.8-2.2-14.4,5.1-22.8,4.8-5.5,10.8-17.9,8.7-17.9-.5,0-3.8-2.9-7.5-6.5s-7.2-6.5-7.9-6.5-6.9,3.4-13.8,7.5c-14.1,8.5-17.9,9.3-24,5.2-4.7-3.1-5-8-1.1-17.9,6.1-15.5,6.9-21.2,3-22.8-1.3-.5-4.5-3-7.3-5.5s-6-4.8-7.3-5.1c-2.4-.7-4.1.5-20.2,15.3-8.4,7.7-9.3,8.3-13.3,8.3-8.7,0-8.7,0-8.7-10.8,0-22.3-4.4-32.2-15.1-34.2-6.5-1.3-7.9-1.2-7.9,0,0,1-2.2,4.5-11.7,19.1-2.3,3.7-5,7-5.9,7.3-2.2.8-11.7.7-13-.2-1.1-.6-6.2-13-7.9-19.2a90.41,90.41,0,0,0-3.6-8.3L271,16H261C255.6,16,250.9,16.3,250.7,16.7ZM290,56.4c20.6,2.6,31.2,5.3,53,13.4,14.9,5.5,37.5,18.5,50,28.7,3,2.4,7.1,5.7,9,7.2,10.1,7.8,25.6,26,36.8,42.8,14.7,22.4,24.4,46.5,30.3,75.6,2.6,13.3,3.8,51.1,2,65.1-4.9,37.9-16.9,69.9-36.2,96.9-11.3,15.7-27.8,33.8-37,40.5-1.4,1-5.3,3.9-8.5,6.4a130,130,0,0,1-17.9,12,58.83,58.83,0,0,0-6.5,4c-.8,1.1-23.8,11-32.4,14a217.92,217.92,0,0,1-31.6,8c-3.6.6-9,1.5-12,2.1-8.2,1.4-41.4,1-54.3-.6-20.2-2.6-29.1-4.9-54.2-13.8-9-3.3-26.9-12.8-36.5-19.5a168.42,168.42,0,0,1-19.6-15.1c-4.5-3.8-8.8-7.3-9.6-7.7a15.46,15.46,0,0,1-3.4-4.1c-1-1.7-5.3-6.7-9.5-11-12-12.5-23.7-31.6-34.8-57.1-4-9.2-8.4-25.6-11.7-43.7-2.4-13.2-2.5-15.4-2.1-39,.6-31,2.1-41,9.4-64.5,5.9-19,19.9-45.8,32.1-61.5,4.5-5.7,30.7-32.7,34.4-35.4,26.3-18.9,44-28.2,69.3-36.5C220.8,56.3,262.5,53,290,56.4Z" transform="translate(-13.08 -16)"/><path d="M240.5,100c-55.8,5.2-106.5,40.4-131.9,91.5-19.9,40-22.7,82.8-8.4,126.5,3.6,11.1,10.7,26.6,14.5,31.8,9,12.3,11.5,15.5,17.9,23.2,21.9,25.8,55,45,91.9,53.2,8.7,2,12.8,2.2,31.5,2.2,24.1,0,33.2-1.4,53-8C358.2,404,397.3,364.3,413.6,314c22.7-70-5.4-147.7-68.1-188.2A159.23,159.23,0,0,0,268.3,100C253.3,98.9,252.3,98.9,240.5,100Zm50,6.4c31.1,6.9,56.9,21,79.1,43,26.9,26.8,42.2,57.1,47.4,94.1,1.4,10.4,1.2,33.2-.5,44.3-6,39.7-26.8,76.4-57.3,101-23.4,18.8-48.3,30.2-75.7,34.8C231,432.3,180,415.9,141.9,378A160,160,0,0,1,99,226.1c5.7-23.1,14.8-41.8,30.2-61.7,23.2-30.2,59.1-52,96.8-58.8,13.2-2.4,14.3-2.4,34.5-2.1C276.1,103.8,281.4,104.3,290.5,106.4Z" transform="translate(-13.08 -16)"/><path d="M299.9,162.7c-4.7,1.1-5.7,13.5-2,23.8a38.36,38.36,0,0,1,2.1,8.6,5,5,0,0,0,2.6,4.3c3.7,2.5,2.9,5.8-1.6,6.7a15.84,15.84,0,0,1-3.8.5,8.74,8.74,0,0,1,1.3-3.2,15.47,15.47,0,0,0,1.5-3.8c0-1.7-3.5,2.3-6,6.8-2.3,4.3-2.3,4.6-.7,6.4a6.88,6.88,0,0,1,1.7,3.7c0,2.5-3.9,8.5-5.6,8.5-.8,0-1.4.4-1.4,1,0,1.1-7.7,3.3-9.5,2.6-.7-.2-2.9-3.4-4.9-6.9-6.1-11-17.1-19.5-28.6-22.1-19.1-4.4-33.9.1-47.3,14.4-6,6.4-7.7,9-9.4,14.1-3.8,11.6-4.7,18.4-3.4,24.7,2.9,13.2,5,17.7,12.2,25.5,8,8.7,17,13.9,27.2,15.8,4.7.9,6.7,1.7,6.7,2.7,0,1.9-6.9,1.2-14.9-1.4-5.4-1.8-5.4-1.8-6.9.4a4.87,4.87,0,0,1-3.4,2.2c-1.7,0-1.9-.5-1.4-3.8.6-3.6.4-3.9-7.2-11.4s-7.9-7.7-10.1-6.2-5.1,1.3-5.1-.6c0-.6,1.1-1.5,2.4-2.2,3.5-1.5,3.9-3.6,1.6-7.6a24.4,24.4,0,0,1-2.7-8.4c-.6-5.4-1.5-6.5-5.7-7s-4.2-2.3,0-3.9c3.6-1.4,3.8-1.7,5.6-9.4,1-4.4,2.1-9.1,2.5-10.4.4-1.8,0-2.8-1.7-4.1-1.4-1.1-2.1-2.3-1.7-3.3.5-1.4,1.1-1.4,3.8-.5s3.4.9,3.7-.3c.3-.8,3.3-4.3,6.9-7.8,5.8-5.7,6.3-6.6,5.5-9-1.8-5.2.3-6.6,4-2.7l2.3,2.5,5.4-2.5a40,40,0,0,1,10.3-3.1c4-.5,4.8-.9,4.8-2.7.1-5.3,4.6-6.1,5.2-.9.2,2.1.9,2.9,2.8,3.1,1.4.1,5.8,1,9.8,1.9,7.2,1.6,7.3,1.6,9.3-.5,3.1-3.4,4.2-2.8,3.5,1.7-.5,3.5-.3,4.1,2.7,6.4a52.36,52.36,0,0,1,9.5,9.2c1.9,2.4,2.5,2.6,5.2,1.7,3.9-1.4,4.9.2,2.1,3.2-2.5,2.7-2.7,5.4-.4,6.3,2,.8,4.4-2.1,6.2-7.5,1.3-3.7,1.2-4.3-.9-7.7s-2.5-3.6-6.1-3-4.2.4-7.4-3-3.4-4.2-2.9-7.6l.6-3.8-6.6-3.3-6.7-3.3-2.2,2.9-2.3,2.9-5.2-1.7c-4.6-1.6-5.2-2.1-5.2-4.6s-.5-3-3.1-3.5c-3.9-.9-12.2.3-13.1,1.8a7.63,7.63,0,0,0-.8,3.3c0,1.7-1.2,2.4-6.2,3.9l-6.1,1.9-1.5-2.2c-2-3-3.2-2.8-9.7,1.3-5.6,3.6-6.3,5.1-4.4,8.7.9,1.7.5,2.6-2.8,6-3.5,3.6-4.1,3.9-7.8,3.4l-4-.6-3.2,5.9c-3.9,7.1-4,8.4-.9,10.4,2.3,1.5,2.3,1.8,1.2,7.4-1,5.1-1.5,5.9-4.1,6.8-4.1,1.3-4.5,2.1-4.5,9.1,0,6.5.8,8,5,8.6,1.9.2,2.8,1.4,4.2,5.3,1.7,4.7,1.7,5.1.1,6.2a6,6,0,0,1-2.5,1.3c-1.2,0-1,4.4.4,5.8.8.8-.8,2.9-6.5,8.3-7.3,6.7-8.9,8.9-6.8,8.9.5,0,4.3-2.5,8.3-5.5s7.9-5.5,8.5-5.5c2.7,0,1.1,2.7-5.2,8.6-10.3,9.8-8.3,9.5,6-.7,7.7-5.5,10.5-6.9,10.5-5.2,0,.5-4.3,4.6-9.5,9.2-14.3,12.6-12.5,13.3,3.7,1.5,4.8-3.5,9.2-6.4,9.8-6.4,2.3,0,.7,2.2-5.2,7.1-8.4,6.9-16.5,14.9-15.2,14.9,1.1,0,16.5-10.6,17.4-12s4.3-1.6,4.7-.4-5.3,7-11.7,12.3c-5.1,4.1-.1,1.9,7.5-3.4,4.4-3,8.6-5.5,9.3-5.5,2.7,0,.5,2.8-7.8,9.9-4.7,4.1-8.9,8-9.4,8.9-.9,1.6-1,1.6,5.7-2.6,2.2-1.3,4.1-2.1,4.3-1.9,1.1,1-9.8,12.6-13.8,14.8-7.5,4.2-8.7,10.1-3,15.4,3.6,3.3,7.6,3.3,10.9-.3s4.6-6.9,3.3-9.2a9.81,9.81,0,0,1-1-3.5c0-1.9,8.3-13.1,10.2-13.8a53.67,53.67,0,0,1,9,.1l7.6.5,4.8-5.2c4.6-5,8.4-6.6,8.4-3.5,0,.9-3.2,5.5-7,10.2s-7.6,9.4-8.3,10.2-3.3,4-5.8,7-8.1,9.9-12.3,15.3c-6.2,8-7.6,10.5-7.6,13.4,0,2.5-.9,4.5-3,7-3.4,3.9-3.5,4.4-1.6,8.2,3.8,7.2,11.9,8.2,15.2,1.8l1.6-3,3.2,3.5a17.83,17.83,0,0,0,4.9,4.2c2.8.9,6.5-1.1,8.7-4.6,3-4.9,2.6-7.9-1.6-11.9-3.5-3.4-3.6-3.5-3.1-10,.5-7.3-.3-6.1,14.1-23.9,10.8-13.3,16.4-19.3,17.4-18.6,2.1,1.3-.3,4.8-8.8,12.5-9,8.3-12,12.7-12,17.9,0,2.2-.9,3.6-3.4,5.5-5.8,4.4-5.6,10.4.4,14.7,4.5,3.2,7.9,1.9,13.8-5.4,1.1-1.3,2.8-1.6,8.4-1.4,4.3.2,7.3.8,7.5,1.5s-1,2.8-2.8,4.8c-3.7,4.1-4.1,7.9-1.5,12,2.3,3.5,6.2,4.9,9.7,3.4,6.4-2.6,7.5-10,2.4-16.1-1.9-2.2-2.4-3.8-2.1-5.7,1.1-4.9-.3-5.6-12.3-5.7-9.3-.1-11.4-.4-14.3-2.2l-3.3-2.2h31.3c30.9,0,35.2-.4,35.2-3.4,0-.7,1.9-2.3,4.3-3.6a30.4,30.4,0,0,0,6-4.2,8.15,8.15,0,0,1,5.6-1.8c4.2,0,7.6-2.5,4.4-3.2a7.07,7.07,0,0,0-4,.4c-2.1.7-2.2.6-1.1-1.2,1.4-2.1,2.4-2.4,7.5-2.1,3.6.3,7.3-1.4,7.3-3.2,0-.9-1.2-1.2-3.7-.9-2.9.2-3.5.1-2.3-.8a9.45,9.45,0,0,1,4.5-.9c4.6.2,5.2,0,7-1.7,1.5-1.5,1.4-1.8-.5-3.1-3.1-2.2-2.5-4.3,1.3-4.3,8.3,0,8.7-2.1,8.7-47V236.3l2.5-3.7c4.7-6.9,3.1-7.8-13.3-7.7-7.1.1-13.6-.1-14.6-.5-1.2-.5-1.6-2-1.6-6.9,0-3.5.5-6.7,1.1-7s2.7.4,4.7,1.8c4.4,2.9,7.9,4.2,15.1,5.6,6.5,1.4,11.7.2,15.1-3.4,1.9-2.1,2.2-3.1,1.7-7-.8-5.6-7.6-21.5-9.2-21.5-1.2,0-9.8-8.6-10.6-10.5-.6-1.5-10.8-8.1-15.9-10.4C309.5,163.1,302.9,162,299.9,162.7ZM318.1,195l3.1,4.5-3.4-3.6c-4.7-5.2-7.8-9.2-7.8-10.4S313.5,188.5,318.1,195Zm18.2-4.5c-.3.9-.8,1.4-1,1.1s-.2-.9.2-1.5C336.4,188.5,337,188.8,336.3,190.5Zm-12.9,9.3c.3.5-.1.9-.9.9s-1.2-.4-.9-.9.7-.8.9-.8S323.1,199.4,323.4,199.8Zm-76.7,13.7c4.9,2.2,17.9,13.2,16.8,14.3a33.31,33.31,0,0,1-7.1.7c-5.9.2-7.4-.2-13.1-3.2-9.7-5.2-16.9-4.8-25.1,1-6.3,4.5-10.5,11.9-10.4,18.3.1,10.4,6.8,19.6,17,23.4a41.54,41.54,0,0,0,6.2,2c1.5,0,1.2,11.8-.2,12.3s-8.9-1.4-13.8-3.5-11.6-8.2-14.5-13.2a37,37,0,0,1,6.1-45.2c5.7-5.6,11.3-8.2,20.4-9.4C236.1,210,240,210.6,246.7,213.5Zm58.8,2.6c0,6.8-2.2,7.3-4.3,1-1.4-4.1-1.3-4.5.4-5.8C304.5,209.2,305.5,210.3,305.5,216.1Zm-5.5,6.4a1.54,1.54,0,0,1-1.5,1.5c-1.6,0-2-1.2-.8-2.3S300,220.9,300,222.5Zm-66,5.9c0,2-4.3,9.6-5.4,9.6-2.2,0-5.6,4.9-5.6,8.2a6.44,6.44,0,0,0,2.6,5.1c5.5,4.6,6.4,5.8,6.4,8.1,0,3.7-1.5,4-6.8,1.1-10.8-5.9-13.1-18.3-4.9-26.4C223.7,230.9,234,226.6,234,228.4Zm97.1,7.6c1.8,1,1.9,2.5,1.9,39.4,0,42.4.5,39.6-6.5,39.6-3.4,0-6.1-2.1-5-4a2.82,2.82,0,0,1,2.1-1c2.9,0,3.4-5.3,3.4-36.1,0-29.7-.1-31-2-32.9s-3-2.1-40.6-1.8c-32.9.3-38.6.5-39.4,1.8-1.1,1.8-1.3,65-.2,66.6,1.8,2.8,5.6,3.4,21.1,3.4,15.7,0,18.6.6,14.2,3-2.2,1.1-39,1.4-40.7.2-1.4-.9-1.8-34.7-.8-61l.7-18.2h44.9C313.3,235,329.8,235.4,331.1,236Zm-67.6,10.7c-4.2,2.2-6.5,4.3-8.3,7.8-3.6,7.1-3.2,14.7,1,16.1,1.9.6,1.9.7-.5,3.2-4.6,5.1-3.9,10.5,1.9,15.1,3.5,2.8,5.1,2.6,9.8-.9,4.1-3.1,7.5-3.9,7.7-1.8,0,.7,0,3.1-.1,5.3-.2,5.2,1.3,9.1,4.2,10.6,3.4,1.9,30.5,2,32.4.2,1.7-1.8,2-26.9.3-30.6-1.8-4-4.8-5.2-12.9-5.2h-7.5l-.5-5.1a18.77,18.77,0,0,0-9.3-14.2c-3.1-1.7-2.9-1.7,16.8-2,11-.1,20.5,0,21.2.2,1.7.7,1.9,58.1.3,59.1s-68.3.6-69.3-.4-1.4-56.2-.3-57.9c.5-.8,3.5-1.2,8.4-1.2C266.4,245.1,266.5,245.1,263.5,246.7Zm12.9,2.8c5.2,2.5,9.5,7.6,10,11.8.3,2,.1,3.7-.4,3.7s-1-1.3-1-2.9c0-3.6-8.6-12.1-12.4-12.1s-10.8,6-12.6,10.8c-.9,2.4-1.9,4-2.2,3.6a1.66,1.66,0,0,1-.3-1.7c.2-.7.6-2.4.9-3.9.7-3.1,9.9-10.8,12.9-10.8A15.66,15.66,0,0,1,276.4,249.5Zm-.6,8.1a10.31,10.31,0,0,1,3.3,4.2c.8,2.1.6,3-1.6,5.2a9,9,0,0,0-2.5,5.2c0,4.1-1.6,4.2-7,.7-3.6-2.3-4.9-3.7-4.5-4.8a27.31,27.31,0,0,0,1.2-4.6c.7-3.8,4-7.5,6.8-7.5A8.79,8.79,0,0,1,275.8,257.6Zm32.1,29.9c.1,7.5-.2,11.5-.9,11.5-.5,0-1-.6-1.1-1.3s-.2-6.6-.3-13.1c-.3-9.8-.1-11.7.9-10.2C307.3,275.5,307.8,280.1,307.9,287.5ZM265.1,277c2.3,1.3,2.4,2.8.2,5.2-2,2.2-6.1,2.4-7,.2-.7-2,1.6-6.4,3.4-6.4A10.59,10.59,0,0,1,265.1,277Zm-44.8,26.6c3.6.9,3.4,2.3-1,6.6-3.5,3.3-4.4,3.6-11.5,4.1-4.3.3-7.8.3-7.8,0,0-.9,3.1-3.1,6.9-5a13.72,13.72,0,0,0,5-4.5c1.2-2.1,2.1-2.7,3.6-2.3C216.6,302.8,218.7,303.3,220.3,303.6Zm75.5,8.8c.3,1.3-.1,1.7-1.4,1.4a2.77,2.77,0,0,1-2.2-2.2c-.3-1.3.1-1.7,1.4-1.4A2.77,2.77,0,0,1,295.8,312.4Zm15-.6c.5,1.6-2.7,2.7-4,1.4a1.76,1.76,0,0,1-.4-2C307.2,309.9,310.3,310.3,310.8,311.8Zm-8.8,2.6c0,.3-.4.8-1,1.1s-1,.1-1-.4a1.1,1.1,0,0,1,1-1.1C301.6,314,302,314.2,302,314.4Zm-66.9,7.3c-.5,1-6.8,9-14,17.7-13.7,16.7-15.3,19.9-13.7,27.3.7,3.1-.3,6.5-2.8,9.6-1.4,1.8-1.6,1.7-4.5-1.5-5.5-6-6.1-4.7,23.3-42.2,5.5-6.9,10.5-12.6,11.3-12.6C235.7,320,235.8,320.5,235.1,321.7Zm85.6.6a.92.92,0,0,1,.1,1.2c-.4.5-56.8.9-67.7.5-2.9,0,.4-1.9,3.9-2.2C263.6,321.2,320,321.7,320.7,322.3ZM301,330c0,.5-1.3,1.6-2.9,2.5a7.91,7.91,0,0,0-3.5,3.2,6.29,6.29,0,0,1-3.2,3c-2.2,1-2.5.9-2.2-.5a5.51,5.51,0,0,1,2.8-2.9,11.36,11.36,0,0,0,3.5-2.6c.8-1.1,4.3-3.6,5.3-3.7C300.9,329,301,329.4,301,330Zm-48.5,1a2.6,2.6,0,0,1-2,1c-.8,0-2.1,1.3-3,2.8-1.6,2.6-9.5,8.5-10.3,7.7-.4-.3.8-1.5,9.8-9.4C250.3,330.2,253.8,328.9,252.5,331Zm8.1.5c-2.2,1.7-3.6,1.9-3.6.7,0-1.4,1.2-2.2,3.4-2.2S262.5,330.1,260.6,331.5Zm10.9-.6a11.53,11.53,0,0,1-3.5,1.6c-2.2.7-2.3.6-1.1-.9a5,5,0,0,1,3.4-1.6C271.6,330,272,330.4,271.5,330.9Zm9.1.6c-2.3,1.7-3.6,1.9-3.6.6,0-1.1,1.8-1.9,4-2C282.1,330.1,282,330.4,280.6,331.5Zm9,0c-2.6,1.9-4.2,1.9-2.6,0a4.57,4.57,0,0,1,2.9-1.5C291.2,330.1,291.2,330.3,289.6,331.5Zm20.2.1a2.37,2.37,0,0,1-2.9.8c-.9-.5-.8-.9.7-1.5C310.7,329.7,311.5,329.9,309.8,331.6ZM256,335.3c0,.7-1.5,2.1-3.2,3.2a26.91,26.91,0,0,0-4.6,3.2,4.55,4.55,0,0,1-2.3,1.3c-.5,0,1.3-2,4.1-4.5C255.5,333.6,256,333.3,256,335.3Zm8,1.7c-1.4,1.1-3.7,2.8-5.2,4a10.94,10.94,0,0,1-3.3,2c-1.2,0,3.8-5,7-7C266.1,333.6,267.4,334.5,264,337Zm11-1c-.6,1.1-1.5,2-2,2a15.14,15.14,0,0,0-3.9,2.6l-3.1,2.6,1.7-3C270.3,335.7,277.3,331.7,275,336Zm9.1,1.2a9,9,0,0,1-4.4,1.8c-1.8,0-1.6-.4,1.3-2.4C285,333.9,287.5,334.4,284.1,337.2Zm20.3-.9c-.5,1.5-6.4,3.9-6.4,2.7s5.3-4.9,6.2-4.4A1.44,1.44,0,0,1,304.4,336.3ZM185,339c1.3.8,1.3,1.1-.2,2.7-2.1,2-4.5.5-3.5-2.1C182,337.8,182.9,337.6,185,339Zm92,2.5c-.7.9-1.5,1.3-1.7,1.1-.7-.7.7-2.6,1.9-2.6C277.8,340,277.8,340.6,277,341.5Zm-33.1,6.9c-1,1-11.9,1.6-11.9.6,0-.6,2.7-1,6.2-1S244.1,348.2,243.9,348.4Zm7.6.6a2.34,2.34,0,0,1-1.6,1c-.6,0-.7-.5-.4-1a2,2,0,0,1,1.6-1C251.7,348,251.8,348.4,251.5,349Zm24.2-.4a2,2,0,0,1-1.9.1c-.8-.3-.5-.6.6-.6S276.1,348.3,275.7,348.6Zm18,0a2,2,0,0,1-1.9.1c-.8-.3-.5-.6.6-.6S294.1,348.3,293.7,348.6Zm-65,14.2c1,.6,1,1.2-.1,2.8-1.4,1.8-1.6,1.8-3.2.2C222.8,363.2,225.5,360.7,228.7,362.8Zm27.1,15c.2,1.4-.2,2.2-1.2,2.2-1.9,0-2.8-1.4-2-3.5S255.4,375.1,255.8,377.8Zm-59.5,3.8c-.7,1.9-2.3,1.8-2.3-.2,0-.8-.4-1.2-1-.9-1.1.7-1.4-1.8-.3-2.8S196.9,380,196.3,381.6Zm17.7-2.1c0,1.2-2.1,2.5-4.1,2.5-.5,0-.4-1.1.2-2.4C211.3,377.1,214,377.1,214,379.5Z" transform="translate(-13.08 -16)"/><path d="M240,216.4a2.82,2.82,0,0,0,1,2.1c.6.3,1-.3,1-1.4s-.4-2.1-1-2.1S240,215.6,240,216.4Z" transform="translate(-13.08 -16)"/><path d="M247.9,221c1.3,1.1,2.8,2,3.5,2s0-.9-1.4-2C246.7,218.4,244.8,218.5,247.9,221Z" transform="translate(-13.08 -16)"/><path d="M333,174.4c0,1.6,6.4,8.6,7.9,8.6s1.4-3.2-.4-5.7S333,172.5,333,174.4Z" transform="translate(-13.08 -16)"/><path d="M391.4,380.8a7.83,7.83,0,0,0,4.2,13.9c7.1.8,11.1-6.7,6.6-12.4C399.8,379.3,394.1,378.5,391.4,380.8Zm7.4,6.6c.6,2.7-1.1,3.8-3.3,2.2-1.7-1.2-1.7-1.6-.6-3C396.6,384.6,398.4,385,398.8,387.4Z" transform="translate(-13.08 -16)"/><path d="M127.7,393.3a19,19,0,0,0-2.1,5.4c-1,4.2,2.2,7.9,6.7,8.1,3.9.1,6.8-2.2,8.4-6.8,1.2-3.2,1.1-3.6-1.4-6.2C135.8,390.1,130,389.9,127.7,393.3Zm6.8,3.7c.9,1.5-.4,5-2,5-2.1,0-2.7-1.7-1.3-4S133.6,395.5,134.5,397Z" transform="translate(-13.08 -16)"/><path d="M138.16,420.24a210.54,210.54,0,0,1,7.66-21.68c1,.94,1.56,1.41,2.61,2.32-1.64,4.17-2.42,6.28-3.89,10.54-1,2.93-1.88,5.56-2.9,8l.06.05c2.19-1.42,4.78-2.81,7.45-4.28,4-2.21,6-3.36,9.93-5.75,1.1.81,1.65,1.21,2.76,2a188.75,188.75,0,0,1-20.56,11.37C140,421.76,139.4,421.26,138.16,420.24Z" transform="translate(-13.08 -16)"/><path d="M166.66,414.64,154.75,432.4c-1.19-.78-1.79-1.18-3-2L164,412.89C165.07,413.6,165.6,414,166.66,414.64Z" transform="translate(-13.08 -16)"/><path d="M161.39,432.6a13.73,13.73,0,0,0,4.69,4.35c3.13,1.75,5.69,1.38,6.71-.51s.22-3.45-2.29-6.05c-3-3.13-4.31-6-2.71-8.59,1.77-2.82,5.75-3.24,9.87-1a13,13,0,0,1,4.23,3.4l-1.81,1.6a11.6,11.6,0,0,0-3.63-3.06c-2.94-1.6-4.92-.78-5.68.47-1,1.71-.22,3.35,2.32,6,3.11,3.28,4.34,5.79,2.91,8.58s-5.62,4.17-11.27,1a16,16,0,0,1-5.33-4.72Z" transform="translate(-13.08 -16)"/><path d="M184.43,440.77c-2.09,2-3.16,3-5.33,5-1.32-.6-2-.9-3.29-1.53a201.54,201.54,0,0,0,16.88-15.81c1.38.57,2.07.85,3.45,1.4a204.29,204.29,0,0,0,.65,22.89c-1.41-.47-2.11-.71-3.51-1.21-.16-2.9-.21-4.35-.28-7.24C189.54,442.94,187.83,442.25,184.43,440.77Zm8.7,1.22c0-2.64,0-4,0-6.59,0-1.49.17-2.79.31-4.07l-.06,0c-.83,1-1.7,2.07-2.66,3.08-1.87,1.9-2.82,2.84-4.75,4.69C188.8,440.31,190.24,440.89,193.13,442Z" transform="translate(-13.08 -16)"/><path d="M207.1,433.64c1.17.37,1.76.54,2.93.88l-3,9.83.11,0c.88-.6,1.74-1.15,2.54-1.65,3.81-2.25,5.66-3.43,9.23-5.89,1.48.34,2.22.51,3.7.81-4.12,2.84-6.26,4.2-10.72,6.76a147.42,147.42,0,0,0,7,14.19c-1.6-.32-2.4-.49-4-.85-2.48-4.85-3.62-7.3-5.68-12.21-1.18.65-1.78,1-3,1.59-.94,3.11-1.42,4.66-2.36,7.77-1.33-.39-2-.59-3.32-1C203.17,445.8,204.48,441.75,207.1,433.64Z" transform="translate(-13.08 -16)"/><path d="M228.55,438.78,227,447.54c4.74.81,7.13,1.13,11.91,1.61.38-3.54.56-5.31.94-8.85,1.22.12,1.83.18,3.06.28-.73,8.47-1.1,12.71-1.83,21.19-1.38-.12-2.08-.18-3.46-.32.41-4,.62-5.95,1-9.92-4.85-.48-7.27-.81-12.08-1.62l-1.75,9.82c-1.36-.23-2-.36-3.39-.61,1.64-8.35,2.47-12.53,4.11-20.88C226.75,438.47,227.35,438.58,228.55,438.78Z" transform="translate(-13.08 -16)"/><path d="M251.53,455.64c-1.14,2.64-1.74,4-3,6.59-1.42-.06-2.13-.1-3.55-.19a206.43,206.43,0,0,0,9.35-20.92c1.46,0,2.19,0,3.66,0a206.17,206.17,0,0,0,9.25,21c-1.47.08-2.2.12-3.67.17-1.24-2.63-1.83-3.95-3-6.6C257,455.74,255.17,455.73,251.53,455.64Zm8.37-2.12c-1-2.42-1.54-3.64-2.51-6.08a39.17,39.17,0,0,1-1.25-3.88h-.07c-.36,1.26-.77,2.55-1.25,3.84-1,2.45-1.5,3.67-2.55,6.11C255.32,453.58,256.85,453.58,259.9,453.52Z" transform="translate(-13.08 -16)"/><path d="M269.51,440.87a50.47,50.47,0,0,1,5.76-1c3-.34,5.24,0,6.8.87a6,6,0,0,1,1.66,8.84c-1.45,1.77-4.14,3-7.33,3.33a12.7,12.7,0,0,1-2.64.09c.33,3.39.5,5.08.84,8.47-1.37.14-2.06.2-3.43.3C270.51,453.44,270.17,449.25,269.51,440.87Zm4,9.94a11.87,11.87,0,0,0,2.69-.06c3.88-.43,6-2.4,5.55-5.3s-2.82-3.77-6.19-3.39a15.81,15.81,0,0,0-2.86.53C273.05,445.88,273.22,447.52,273.54,450.81Z" transform="translate(-13.08 -16)"/><path d="M291.63,452.27c-.51,2.83-.79,4.24-1.39,7.07l-3.5.6a206.43,206.43,0,0,0,4.35-22.44c1.44-.31,2.16-.47,3.59-.8a205.15,205.15,0,0,0,13.84,18.36c-1.42.41-2.13.61-3.56,1-1.81-2.29-2.7-3.44-4.43-5.77C297,451.17,295.21,451.56,291.63,452.27Zm7.7-3.9c-1.57-2.14-2.33-3.22-3.84-5.38a39.68,39.68,0,0,1-2.11-3.5h-.07c-.06,1.31-.16,2.66-.34,4-.4,2.6-.62,3.91-1.1,6.51C294.87,449.43,296.36,449.1,299.33,448.37Z" transform="translate(-13.08 -16)"/><path d="M308.23,435.35c-2.78.89-4.17,1.31-7,2.08l-.64-2.25a137.75,137.75,0,0,0,16.62-5.53l.87,2.17c-2.74,1.08-4.12,1.58-6.89,2.54,2.52,7.14,3.79,10.72,6.32,17.87-1.33.45-2,.67-3.32,1.1Z" transform="translate(-13.08 -16)"/><path d="M328,448.28l-8.33-19.61c1.24-.51,1.86-.77,3.09-1.31,4.56,2.72,6.93,4,11.81,6.41,2.83,1.39,5.22,2.68,7.38,4l.05-.07a73.44,73.44,0,0,1-4.5-7.53l-4.24-7.85c1-.54,1.55-.82,2.57-1.38l10.46,18.59c-1.24.68-1.87,1-3.12,1.67-5.1-2.22-7.58-3.42-12.37-6a49.33,49.33,0,0,1-7.22-4.57l-.08.07c1.25,2.39,2.37,4.7,3.81,7.93L331,447C329.81,447.53,329.21,447.78,328,448.28Z" transform="translate(-13.08 -16)"/><path d="M351.76,428.59c.53,2.84.77,4.27,1.21,7.13-1.25.75-1.87,1.12-3.13,1.85A207.37,207.37,0,0,0,346,415c1.27-.82,1.9-1.23,3.15-2.08A198.15,198.15,0,0,0,369,424.93c-1.22.92-1.83,1.37-3.06,2.26-2.56-1.47-3.82-2.22-6.32-3.75C356.49,425.59,354.93,426.62,351.76,428.59Zm6-6.5c-2.27-1.42-3.39-2.15-5.61-3.62-1.25-.84-2.27-1.68-3.27-2.5l-.06,0c.4,1.25.79,2.55,1.11,3.89.54,2.59.8,3.89,1.28,6.51C353.84,424.74,355.15,423.88,357.74,422.09Z" transform="translate(-13.08 -16)"/><path d="M382.78,400.32c-2.3-1.92-5.06-4.24-7-6.11l-.08.08a76.34,76.34,0,0,1,3.49,8c1.6,4.24,2.35,6.39,3.76,10.75-.81.74-1.21,1.11-2,1.84-4.11-1.78-6.14-2.72-10.12-4.68a66,66,0,0,1-7.71-4.38l-.06,0c1.67,2.08,3.84,4.94,5.72,7.54,2.15,3,3.21,4.48,5.33,7.48-1.06.87-1.59,1.29-2.67,2.13-4.75-7.14-7.16-10.68-12.05-17.72,1.26-1,1.88-1.52,3.12-2.56,4,2,6,3,10.16,4.91,2.59,1.22,4.87,2.32,6.91,3.48l.09-.09c-1-2-1.88-4.4-2.9-7.14-1.52-4.26-2.32-6.37-4-10.51,1.17-1.17,1.74-1.75,2.89-2.95,6.72,5.37,10.1,8,16.93,13.27-1,1.05-1.48,1.57-2.47,2.59C387.16,403.91,385.7,402.72,382.78,400.32Z" transform="translate(-13.08 -16)"/><path d="M138.16,420.24a210.54,210.54,0,0,1,7.66-21.68c1,.94,1.56,1.41,2.61,2.32-1.64,4.17-2.42,6.28-3.89,10.54-1,2.93-1.88,5.56-2.9,8l.06.05c2.19-1.42,4.78-2.81,7.45-4.28,4-2.21,6-3.36,9.93-5.75,1.1.81,1.65,1.21,2.76,2a188.75,188.75,0,0,1-20.56,11.37C140,421.76,139.4,421.26,138.16,420.24Z" transform="translate(-13.08 -16)"/><path d="M166.66,414.64,154.75,432.4c-1.19-.78-1.79-1.18-3-2L164,412.89C165.07,413.6,165.6,414,166.66,414.64Z" transform="translate(-13.08 -16)"/><path d="M161.39,432.6a13.73,13.73,0,0,0,4.69,4.35c3.13,1.75,5.69,1.38,6.71-.51s.22-3.45-2.29-6.05c-3-3.13-4.31-6-2.71-8.59,1.77-2.82,5.75-3.24,9.87-1a13,13,0,0,1,4.23,3.4l-1.81,1.6a11.6,11.6,0,0,0-3.63-3.06c-2.94-1.6-4.92-.78-5.68.47-1,1.71-.22,3.35,2.32,6,3.11,3.28,4.34,5.79,2.91,8.58s-5.62,4.17-11.27,1a16,16,0,0,1-5.33-4.72Z" transform="translate(-13.08 -16)"/><path d="M184.43,440.77c-2.09,2-3.16,3-5.33,5-1.32-.6-2-.9-3.29-1.53a201.54,201.54,0,0,0,16.88-15.81c1.38.57,2.07.85,3.45,1.4a204.29,204.29,0,0,0,.65,22.89c-1.41-.47-2.11-.71-3.51-1.21-.16-2.9-.21-4.35-.28-7.24C189.54,442.94,187.83,442.25,184.43,440.77Zm8.7,1.22c0-2.64,0-4,0-6.59,0-1.49.17-2.79.31-4.07l-.06,0c-.83,1-1.7,2.07-2.66,3.08-1.87,1.9-2.82,2.84-4.75,4.69C188.8,440.31,190.24,440.89,193.13,442Z" transform="translate(-13.08 -16)"/><path d="M207.1,433.64c1.17.37,1.76.54,2.93.88l-3,9.83.11,0c.88-.6,1.74-1.15,2.54-1.65,3.81-2.25,5.66-3.43,9.23-5.89,1.48.34,2.22.51,3.7.81-4.12,2.84-6.26,4.2-10.72,6.76a147.42,147.42,0,0,0,7,14.19c-1.6-.32-2.4-.49-4-.85-2.48-4.85-3.62-7.3-5.68-12.21-1.18.65-1.78,1-3,1.59-.94,3.11-1.42,4.66-2.36,7.77-1.33-.39-2-.59-3.32-1C203.17,445.8,204.48,441.75,207.1,433.64Z" transform="translate(-13.08 -16)"/><path d="M228.55,438.78,227,447.54c4.74.81,7.13,1.13,11.91,1.61.38-3.54.56-5.31.94-8.85,1.22.12,1.83.18,3.06.28-.73,8.47-1.1,12.71-1.83,21.19-1.38-.12-2.08-.18-3.46-.32.41-4,.62-5.95,1-9.92-4.85-.48-7.27-.81-12.08-1.62l-1.75,9.82c-1.36-.23-2-.36-3.39-.61,1.64-8.35,2.47-12.53,4.11-20.88C226.75,438.47,227.35,438.58,228.55,438.78Z" transform="translate(-13.08 -16)"/><path d="M251.53,455.64c-1.14,2.64-1.74,4-3,6.59-1.42-.06-2.13-.1-3.55-.19a206.43,206.43,0,0,0,9.35-20.92c1.46,0,2.19,0,3.66,0a206.17,206.17,0,0,0,9.25,21c-1.47.08-2.2.12-3.67.17-1.24-2.63-1.83-3.95-3-6.6C257,455.74,255.17,455.73,251.53,455.64Zm8.37-2.12c-1-2.42-1.54-3.64-2.51-6.08a39.17,39.17,0,0,1-1.25-3.88h-.07c-.36,1.26-.77,2.55-1.25,3.84-1,2.45-1.5,3.67-2.55,6.11C255.32,453.58,256.85,453.58,259.9,453.52Z" transform="translate(-13.08 -16)"/><path d="M269.51,440.87a50.47,50.47,0,0,1,5.76-1c3-.34,5.24,0,6.8.87a6,6,0,0,1,1.66,8.84c-1.45,1.77-4.14,3-7.33,3.33a12.7,12.7,0,0,1-2.64.09c.33,3.39.5,5.08.84,8.47-1.37.14-2.06.2-3.43.3C270.51,453.44,270.17,449.25,269.51,440.87Zm4,9.94a11.87,11.87,0,0,0,2.69-.06c3.88-.43,6-2.4,5.55-5.3s-2.82-3.77-6.19-3.39a15.81,15.81,0,0,0-2.86.53C273.05,445.88,273.22,447.52,273.54,450.81Z" transform="translate(-13.08 -16)"/><path d="M291.63,452.27c-.51,2.83-.79,4.24-1.39,7.07l-3.5.6a206.43,206.43,0,0,0,4.35-22.44c1.44-.31,2.16-.47,3.59-.8a205.15,205.15,0,0,0,13.84,18.36c-1.42.41-2.13.61-3.56,1-1.81-2.29-2.7-3.44-4.43-5.77C297,451.17,295.21,451.56,291.63,452.27Zm7.7-3.9c-1.57-2.14-2.33-3.22-3.84-5.38a39.68,39.68,0,0,1-2.11-3.5h-.07c-.06,1.31-.16,2.66-.34,4-.4,2.6-.62,3.91-1.1,6.51C294.87,449.43,296.36,449.1,299.33,448.37Z" transform="translate(-13.08 -16)"/><path d="M308.23,435.35c-2.78.89-4.17,1.31-7,2.08l-.64-2.25a137.75,137.75,0,0,0,16.62-5.53l.87,2.17c-2.74,1.08-4.12,1.58-6.89,2.54,2.52,7.14,3.79,10.72,6.32,17.87-1.33.45-2,.67-3.32,1.1Z" transform="translate(-13.08 -16)"/><path d="M328,448.28l-8.33-19.61c1.24-.51,1.86-.77,3.09-1.31,4.56,2.72,6.93,4,11.81,6.41,2.83,1.39,5.22,2.68,7.38,4l.05-.07a73.44,73.44,0,0,1-4.5-7.53l-4.24-7.85c1-.54,1.55-.82,2.57-1.38l10.46,18.59c-1.24.68-1.87,1-3.12,1.67-5.1-2.22-7.58-3.42-12.37-6a49.33,49.33,0,0,1-7.22-4.57l-.08.07c1.25,2.39,2.37,4.7,3.81,7.93L331,447C329.81,447.53,329.21,447.78,328,448.28Z" transform="translate(-13.08 -16)"/><path d="M351.76,428.59c.53,2.84.77,4.27,1.21,7.13-1.25.75-1.87,1.12-3.13,1.85A207.37,207.37,0,0,0,346,415c1.27-.82,1.9-1.23,3.15-2.08A198.15,198.15,0,0,0,369,424.93c-1.22.92-1.83,1.37-3.06,2.26-2.56-1.47-3.82-2.22-6.32-3.75C356.49,425.59,354.93,426.62,351.76,428.59Zm6-6.5c-2.27-1.42-3.39-2.15-5.61-3.62-1.25-.84-2.27-1.68-3.27-2.5l-.06,0c.4,1.25.79,2.55,1.11,3.89.54,2.59.8,3.89,1.28,6.51C353.84,424.74,355.15,423.88,357.74,422.09Z" transform="translate(-13.08 -16)"/><path d="M382.78,400.32c-2.3-1.92-5.06-4.24-7-6.11l-.08.08a76.34,76.34,0,0,1,3.49,8c1.6,4.24,2.35,6.39,3.76,10.75-.81.74-1.21,1.11-2,1.84-4.11-1.78-6.14-2.72-10.12-4.68a66,66,0,0,1-7.71-4.38l-.06,0c1.67,2.08,3.84,4.94,5.72,7.54,2.15,3,3.21,4.48,5.33,7.48-1.06.87-1.59,1.29-2.67,2.13-4.75-7.14-7.16-10.68-12.05-17.72,1.26-1,1.88-1.52,3.12-2.56,4,2,6,3,10.16,4.91,2.59,1.22,4.87,2.32,6.91,3.48l.09-.09c-1-2-1.88-4.4-2.9-7.14-1.52-4.26-2.32-6.37-4-10.51,1.17-1.17,1.74-1.75,2.89-2.95,6.72,5.37,10.1,8,16.93,13.27-1,1.05-1.48,1.57-2.47,2.59C387.16,403.91,385.7,402.72,382.78,400.32Z" transform="translate(-13.08 -16)"/><text class="cls-1" transform="matrix(-0.58, -0.83, 0.82, -0.57, 105.5, 356.16)">B</text><text class="cls-1" transform="translate(93.12 338.44) rotate(-117.32) scale(1.01 1)">A</text><text class="cls-1" transform="translate(82.42 317.58) rotate(-109.79) scale(1.01 1)">B</text><text class="cls-1" transform="translate(75.06 297.25) rotate(-102.22) scale(1.01 1)">A</text><text class="cls-1" transform="translate(70.42 274.12) rotate(-96.81) scale(1.01 1)"> </text><text class="cls-1" transform="translate(69.36 265.26) rotate(-93.57) scale(1.01 1)">I</text><text class="cls-1" transform="translate(68.35 255) rotate(-87.71) scale(1.01 1)">N</text><text class="cls-1" transform="translate(69.68 229.83) rotate(-81.17) scale(1.01 1)">S</text><text class="cls-1" transform="matrix(0.25, -0.98, 0.97, 0.25, 71.79, 215.74)">T</text><text class="cls-1" transform="matrix(0.33, -0.96, 0.95, 0.33, 76.42, 198.25)">I</text><text class="cls-1" transform="matrix(0.41, -0.93, 0.91, 0.4, 79.67, 188.38)">T</text><text class="cls-1" transform="matrix(0.52, -0.87, 0.86, 0.51, 86.79, 171.92)">U</text><text class="cls-1" transform="matrix(0.62, -0.8, 0.79, 0.61, 98.65, 152.21)">T</text><text class="cls-1" transform="translate(109.56 137.9) rotate(-46.51) scale(1.01 1)">E</text><text class="cls-1" transform="translate(123.07 124) rotate(-41.91) scale(1.01 1)"> </text><text class="cls-1" transform="matrix(0.82, -0.6, 0.59, 0.81, 129.3, 117.88)">O</text><text class="cls-1" transform="matrix(0.88, -0.49, 0.49, 0.87, 149.86, 103.01)">F</text><text class="cls-1" transform="translate(166.79 93.84) rotate(-24.55) scale(1.01 1)"> </text><text class="cls-1" transform="translate(174.75 90.02) rotate(-20.16) scale(1.01 1)">T</text><text class="cls-1" transform="matrix(0.98, -0.25, 0.24, 0.97, 191.63, 83.8)">E</text><text class="cls-1" transform="translate(210.24 79.09) rotate(-7.57) scale(1.01 1)">C</text><text class="cls-1" transform="translate(231.12 76.35) rotate(-0.92) scale(1.01 1)">H</text><text class="cls-1" transform="matrix(1, 0.14, -0.14, 0.99, 256.27, 76.11)">N</text><text class="cls-1" transform="matrix(0.97, 0.28, -0.28, 0.96, 281.11, 79.52)">O</text><text class="cls-1" transform="translate(305.44 86.72) rotate(23.13) scale(1.01 1)">L</text><text class="cls-1" transform="translate(322.58 93.82) rotate(30.28) scale(1.01 1)">O</text><text class="cls-1" transform="translate(344.42 106.64) rotate(38.29) scale(1.01 1)">G</text><text class="cls-1" transform="translate(363.21 121.61) rotate(45.63) scale(1.01 1)">Y</text><text class="cls-1" transform="translate(377.86 136.98) rotate(50.54) scale(1.01 1)"> </text><text class="cls-1" transform="matrix(0.57, 0.84, -0.83, 0.56, 383.66, 143.51)">A</text><text class="cls-1" transform="translate(396.85 162.86) rotate(63.9) scale(1.01 1)">N</text><text class="cls-1" transform="translate(407.84 185.38) rotate(72.11) scale(1.01 1)">D</text><text class="cls-1" transform="translate(414.92 208.58) rotate(77.66) scale(1.01 1)"> </text><text class="cls-1" transform="translate(416.88 217.19) rotate(81.54) scale(1.01 1)">S</text><text class="cls-1" transform="translate(419.13 231.23) rotate(87.44) scale(1.01 1)">C</text><text class="cls-1" transform="translate(419.82 252.47) rotate(92.64) scale(1.01 1)">I</text><text class="cls-1" transform="translate(419.52 262.85) rotate(97.58) scale(1.01 1)">E</text><text class="cls-1" transform="matrix(-0.26, 0.98, -0.97, -0.26, 417.18, 281.83)">N</text><text class="cls-1" transform="matrix(-0.39, 0.93, -0.92, -0.39, 410.54, 306.04)">C</text><text class="cls-1" transform="translate(402.31 325.51) rotate(119.47) scale(1.01 1)">E</text><text class="cls-1" transform="translate(392.71 342.21) rotate(125.01) scale(1.01 1)">S</text></svg>