<?xml version="1.0" encoding="utf-8"?>
<!-- Generator: Adobe Illustrator 24.3.0, SVG Export Plug-In . SVG Version: 6.00 Build 0)  -->
<svg version="1.1" id="Layer_1" xmlns="http://www.w3.org/2000/svg" xmlns:xlink="http://www.w3.org/1999/xlink" x="0px" y="0px"
	 viewBox="0 0 122.8 53.9" style="enable-background:new 0 0 122.8 53.9;" xml:space="preserve">
<style type="text/css">
	.st0{fill:#FFFFFF;}
</style>
<path class="st0" d="M24.7,35.9h-20c-2.3,0-4.1-1.8-4.1-3.9l0,0V6.3c0-2.2,1.8-3.9,4.1-3.9h20c2.3,0,4.1,1.8,4.1,3.9v25.6
	C28.8,34.1,26.9,35.9,24.7,35.9z M4.6,3.3c-1.7,0-3.1,1.4-3.1,3v25.6c0,1.7,1.4,3,3.1,3h20c1.7,0,3.1-1.4,3.1-3V6.3
	c0-1.7-1.4-3-3.1-3L4.6,3.3z"/>
<path class="st0" d="M55.8,35.9h-20c-2.3,0-4.1-1.8-4.1-3.9l0,0V6.3c0-2.2,1.8-3.9,4.1-3.9h20c2.3,0,4.1,1.8,4.1,3.9v25.6
	C59.9,34.1,58,35.9,55.8,35.9L55.8,35.9z M35.7,3.3c-1.7,0-3.1,1.4-3.1,3v25.6c0,1.7,1.4,3,3.1,3h20c1.7,0,3.1-1.4,3.1-3V6.3
	c0-1.7-1.4-3-3.1-3L35.7,3.3z"/>
<path class="st0" d="M87,35.9H66.9c-2.3,0-4.1-1.8-4.1-3.9l0,0V6.3c0-2.2,1.8-3.9,4.1-3.9H87c2.3,0,4.1,1.8,4.1,3.9v25.6
	C91.1,34.1,89.2,35.9,87,35.9C87,35.9,87,35.9,87,35.9z M66.9,3.3c-1.7,0-3.1,1.4-3.1,3v25.6c0,1.7,1.4,3,3.1,3H87
	c1.7,0,3.1-1.4,3.1-3V6.3c0-1.7-1.4-3-3.1-3L66.9,3.3z"/>
<path class="st0" d="M118.1,35.9h-20c-2.3,0-4.1-1.8-4.1-3.9V6.3c0-2.2,1.8-3.9,4.1-3.9h20c2.3,0,4.1,1.8,4.1,3.9v25.6
	C122.2,34.1,120.4,35.9,118.1,35.9C118.1,35.9,118.1,35.9,118.1,35.9z M98.1,3.3c-1.7,0-3.1,1.4-3.1,3v25.6c0,1.7,1.4,3,3.1,3h20
	c1.7,0,3.1-1.4,3.1-3V6.3c0-1.7-1.4-3-3.1-3L98.1,3.3z"/>
<path class="st0" d="M6.3,8.1h10.5c1.5-0.1,2.9,0.2,4.3,0.7c0.9,0.4,1.7,1.1,2.4,1.9c0.6,0.9,1,2,0.9,3c0,2.4-1.4,4-4.1,4.8
	c1.4,0.2,2.6,1,3.5,2c0.8,1,1.2,2.1,1.2,3.3c0,1.6-0.7,3.2-1.9,4.2c-1.3,1.2-3.4,1.8-6.2,1.8H6.3V8.1z M11.6,11.9v4.8h4
	c1.5,0,2.4-0.3,2.8-0.8c0.3-0.5,0.5-1,0.6-1.6c0-0.5-0.2-1-0.5-1.4c-0.2-0.4-0.6-0.6-1-0.7c-0.7-0.1-1.5-0.2-2.2-0.2H11.6z
	 M11.6,20.6v5.3h4.1c1,0.1,2.1-0.2,2.9-0.7c0.6-0.5,0.9-1.2,0.9-2c0-0.7-0.3-1.4-0.8-1.8c-0.8-0.6-1.8-0.9-2.7-0.8H11.6z"/>
<path class="st0" d="M116.7,12.9l-4.5,1.5c-0.5-1.6-2.1-2.7-3.9-2.6c-2.1,0-3.1,0.7-3.1,2c0,0.5,0.2,1,0.6,1.3
	c0.8,0.5,1.7,0.8,2.7,0.9c1.7,0.3,3.4,0.7,5.1,1.4c1.1,0.5,2,1.3,2.7,2.2c0.7,1,1.1,2.2,1.1,3.5c0,2-0.8,3.8-2.4,5.1
	c-1.6,1.4-3.9,2.2-7,2.2c-2.1,0.1-4.1-0.5-5.9-1.5c-1.6-1.1-2.8-2.7-3.2-4.6l4.9-1.1c0.5,2,2.1,3.1,4.6,3.1c1,0.1,1.9-0.2,2.7-0.7
	c0.6-0.4,0.9-1,0.9-1.6c0-0.6-0.3-1.2-0.8-1.5c-1-0.5-2-0.8-3.1-1c-2.8-0.6-4.9-1.4-6.2-2.4c-1.3-1.1-2-2.7-1.9-4.4
	c0-1.9,0.8-3.7,2.2-4.9c1.6-1.4,3.8-2.1,5.9-2C112.5,7.7,115.4,9.4,116.7,12.9z"/>
<path class="st0" d="M84.6,8.1v4.3H79v17.5h-5.4V12.4H68V8.1H84.6z"/>
<path class="st0" d="M48.4,8.1v21.9h-5.3V8.1H48.4z"/>
<path class="st0" d="M44.3,38.5l-4,12.8H37l-4-12.8h3.3l2.6,9.1l2.8-9.1H44.3z M48.6,38.5v12.8h-3.1V38.5H48.6z M60.7,40.7l-6.7,8.1
	h6.9v2.4H50.3v-2.2l6.6-8.2h-6.2v-2.4h10V40.7z M69.1,38.5l4.1,12.8H70l-0.8-2.6h-4.3l-0.8,2.6h-2.7l4.2-12.8H69.1z M65.6,46.3h2.8
	l-1.4-4.5L65.6,46.3z M84.5,44.5v6.8h-1.4c-0.1-0.5-0.3-1-0.4-1.5c-0.9,1.1-2.2,1.7-3.6,1.7c-1.6,0.1-3.1-0.6-4-1.8
	c-1-1.3-1.5-3-1.4-4.6c-0.1-1.8,0.4-3.5,1.5-4.9c2-2.2,5.4-2.5,7.7-0.7c0.9,0.8,1.5,2,1.7,3.2l-2.9,0.4c-0.2-1.5-1-2.3-2.3-2.3
	c-0.8,0-1.5,0.4-1.9,1.1c-0.5,1-0.7,2.1-0.6,3.1c-0.1,1,0.2,2.1,0.7,3c0.4,0.7,1.2,1.1,2,1c0.5,0,1.1-0.2,1.5-0.5
	c0.5-0.4,0.7-1,0.6-1.7h-2.5v-2.4L84.5,44.5z"/>
</svg>
