<?xml version="1.0" encoding="utf-8"?>
<!-- Generator: Adobe Illustrator 24.3.0, SVG Export Plug-In . SVG Version: 6.00 Build 0)  -->
<svg version="1.1" id="Layer_1" xmlns="http://www.w3.org/2000/svg" xmlns:xlink="http://www.w3.org/1999/xlink" x="0px" y="0px"
	 viewBox="0 0 122.8 53.9" style="enable-background:new 0 0 122.8 53.9;" xml:space="preserve">
<style type="text/css">
	.st0{fill:#FFFFFF;}
</style>
<path class="st0" d="M34.2,27.7H19.3c-1.7,0-3-1.3-3-2.8l0,0V6.2c0-1.6,1.3-2.8,3-2.8h14.9c1.7,0,3,1.3,3,2.8v18.5
	C37.2,26.4,35.8,27.7,34.2,27.7z M19.3,4.1c-1.3,0-2.3,1-2.3,2.2v18.5c0,1.2,1,2.2,2.3,2.2h14.9c1.3,0,2.3-1,2.3-2.2V6.2
	c0-1.2-1-2.2-2.3-2.2H19.3z"/>
<path class="st0" d="M57.3,27.7H42.4c-1.7,0-3-1.3-3-2.8l0,0V6.2c0-1.6,1.3-2.8,3-2.8h14.9c1.7,0,3,1.3,3,2.8v18.5
	C60.4,26.4,58.9,27.7,57.3,27.7L57.3,27.7z M42.4,4.1c-1.3,0-2.3,1-2.3,2.2v18.5c0,1.2,1,2.2,2.3,2.2h14.9c1.3,0,2.3-1,2.3-2.2V6.2
	c0-1.2-1-2.2-2.3-2.2H42.4z"/>
<path class="st0" d="M80.5,27.7H65.6c-1.7,0-3-1.3-3-2.8l0,0V6.2c0-1.6,1.3-2.8,3-2.8h14.9c1.7,0,3,1.3,3,2.8v18.5
	C83.5,26.4,82.1,27.7,80.5,27.7L80.5,27.7z M65.6,4.1c-1.3,0-2.3,1-2.3,2.2v18.5c0,1.2,1,2.2,2.3,2.2h14.9c1.3,0,2.3-1,2.3-2.2V6.2
	c0-1.2-1-2.2-2.3-2.2H65.6z"/>
<path class="st0" d="M103.6,27.7H88.7c-1.7,0-3-1.3-3-2.8V6.2c0-1.6,1.3-2.8,3-2.8h14.9c1.7,0,3,1.3,3,2.8v18.5
	C106.7,26.4,105.3,27.7,103.6,27.7L103.6,27.7z M88.7,4.1c-1.3,0-2.3,1-2.3,2.2v18.5c0,1.2,1,2.2,2.3,2.2h14.9c1.3,0,2.3-1,2.3-2.2
	V6.2c0-1.2-1-2.2-2.3-2.2H88.7z"/>
<path class="st0" d="M20.5,7.5h7.8c1.1-0.1,2.2,0.1,3.2,0.5c0.7,0.3,1.3,0.8,1.8,1.4c0.4,0.7,0.7,1.4,0.7,2.2c0,1.7-1,2.9-3,3.5
	c1,0.1,1.9,0.7,2.6,1.4c0.6,0.7,0.9,1.5,0.9,2.4c0,1.2-0.5,2.3-1.4,3c-1,0.9-2.5,1.3-4.6,1.3h-7.9V7.5z M24.5,10.3v3.5h3
	c1.1,0,1.8-0.2,2.1-0.6c0.2-0.4,0.4-0.7,0.4-1.2c0-0.4-0.1-0.7-0.4-1c-0.1-0.3-0.4-0.4-0.7-0.5c-0.5-0.1-1.1-0.1-1.6-0.1L24.5,10.3
	L24.5,10.3z M24.5,16.6v3.8h3c0.7,0.1,1.6-0.1,2.2-0.5c0.4-0.4,0.7-0.9,0.7-1.4c0-0.5-0.2-1-0.6-1.3c-0.6-0.4-1.3-0.7-2-0.6
	C27.7,16.6,24.5,16.6,24.5,16.6z"/>
<path class="st0" d="M102.6,11l-3.3,1.1c-0.4-1.2-1.6-2-2.9-1.9c-1.6,0-2.3,0.5-2.3,1.4c0,0.4,0.1,0.7,0.4,0.9
	c0.6,0.4,1.3,0.6,2,0.7c1.3,0.2,2.5,0.5,3.8,1c0.8,0.4,1.5,0.9,2,1.6c0.5,0.7,0.8,1.6,0.8,2.5c0,1.4-0.6,2.8-1.8,3.7
	c-1.2,1-2.9,1.6-5.2,1.6c-1.6,0.1-3-0.4-4.4-1.1c-1.2-0.8-2.1-2-2.4-3.3l3.6-0.8c0.4,1.4,1.6,2.2,3.4,2.2c0.7,0.1,1.4-0.1,2-0.5
	c0.4-0.3,0.7-0.7,0.7-1.2c0-0.4-0.2-0.9-0.6-1.1c-0.7-0.4-1.5-0.6-2.3-0.7c-2.1-0.4-3.6-1-4.6-1.7c-1-0.8-1.5-2-1.4-3.2
	c0-1.4,0.6-2.7,1.6-3.6c1.2-1,2.8-1.5,4.4-1.4C99.4,7.2,101.6,8.5,102.6,11z"/>
<path class="st0" d="M78.7,7.5v3.1h-4.2v12.7h-4V10.7h-4.2V7.5H78.7z"/>
<path class="st0" d="M51.8,7.5v15.9h-3.9V7.5H51.8z"/>
<path class="st0" d="M48.8,29.6l-3,9.3h-2.5l-3-9.3h2.5l1.9,6.6l2.1-6.6H48.8z M52,29.6v9.3h-2.3v-9.3H52z M60.9,31.2L56,37h5.1v1.7
	h-7.9v-1.6l4.9-5.9h-4.6v-1.7h7.4C60.9,29.5,60.9,31.2,60.9,31.2z M67.2,29.6l3,9.3h-2.4L67.3,37h-3.2l-0.6,1.9h-2l3.1-9.3H67.2z
	 M64.6,35.2h2.1l-1-3.3L64.6,35.2z M78.6,33.9v4.9h-1c-0.1-0.4-0.2-0.7-0.3-1.1c-0.7,0.8-1.6,1.2-2.7,1.2c-1.2,0.1-2.3-0.4-3-1.3
	c-0.7-0.9-1.1-2.2-1-3.3c-0.1-1.3,0.3-2.5,1.1-3.6c1.5-1.6,4-1.8,5.7-0.5c0.7,0.6,1.1,1.4,1.3,2.3l-2.2,0.3
	c-0.1-1.1-0.7-1.7-1.7-1.7c-0.6,0-1.1,0.3-1.4,0.8c-0.4,0.7-0.5,1.5-0.4,2.2c-0.1,0.7,0.1,1.5,0.5,2.2c0.3,0.5,0.9,0.8,1.5,0.7
	c0.4,0,0.8-0.1,1.1-0.4c0.4-0.3,0.5-0.7,0.4-1.2h-1.9v-1.7L78.6,33.9z"/>
<g>
	<path class="st0" d="M37.1,48.3l-0.5-1.5h-2.2l-0.5,1.5h-0.9l2-5.8h1l2,5.8H37.1z M35.5,43.5L34.7,46h1.7L35.5,43.5L35.5,43.5z"/>
	<path class="st0" d="M42.1,42.5h0.8v3.7c0,0.6-0.2,1.1-0.6,1.5c-0.4,0.4-0.9,0.6-1.5,0.6s-1.1-0.2-1.5-0.6
		c-0.4-0.4-0.6-0.9-0.6-1.5v-3.7h0.8v3.7c0,0.8,0.5,1.4,1.3,1.4c0.8,0,1.3-0.5,1.3-1.4V42.5z"/>
	<path class="st0" d="M48.3,42.5v0.8h-1.9v5h-0.8v-5h-1.9v-0.8H48.3z"/>
	<path class="st0" d="M51.1,48.3c-0.8,0-1.5-0.3-2-0.8c-0.5-0.6-0.8-1.3-0.8-2.1c0-0.8,0.2-1.5,0.8-2.1c0.5-0.6,1.2-0.9,2-0.9
		c0.8,0,1.5,0.3,2,0.9c0.5,0.6,0.8,1.3,0.8,2.1c0,0.8-0.3,1.5-0.8,2.1C52.6,48.1,51.9,48.3,51.1,48.3z M51.1,47.6
		c0.6,0,1-0.2,1.4-0.6c0.3-0.4,0.5-0.9,0.5-1.6c0-0.6-0.2-1.2-0.5-1.6c-0.3-0.4-0.8-0.6-1.4-0.6c-0.6,0-1,0.2-1.4,0.6
		c-0.3,0.4-0.5,0.9-0.5,1.6c0,0.6,0.2,1.2,0.5,1.6C50.1,47.4,50.5,47.6,51.1,47.6z"/>
	<path class="st0" d="M58.4,48.3l-2.9-4.7h0v4.7h-0.8v-5.8h1.1l2.4,4h0v-4h0.8v5.8H58.4z"/>
	<path class="st0" d="M62.7,48.3c-0.8,0-1.5-0.3-2-0.8S60,46.2,60,45.4c0-0.8,0.2-1.5,0.8-2.1c0.5-0.6,1.2-0.9,2-0.9
		c0.8,0,1.5,0.3,2,0.9c0.5,0.6,0.8,1.3,0.8,2.1c0,0.8-0.3,1.5-0.8,2.1S63.5,48.3,62.7,48.3z M62.7,47.6c0.6,0,1-0.2,1.4-0.6
		c0.3-0.4,0.5-0.9,0.5-1.6c0-0.6-0.2-1.2-0.5-1.6c-0.3-0.4-0.8-0.6-1.4-0.6s-1,0.2-1.4,0.6c-0.3,0.4-0.5,0.9-0.5,1.6
		c0,0.6,0.2,1.2,0.5,1.6C61.7,47.4,62.2,47.6,62.7,47.6z"/>
	<path class="st0" d="M70.8,48.3v-4.6h0l-1.4,2.8h-0.7l-1.4-2.8h0v4.6h-0.8v-5.8h1.1l1.5,3.1h0l1.5-3.1h1.1v5.8H70.8z"/>
	<path class="st0" d="M75.2,48.3c-0.8,0-1.5-0.3-2-0.8s-0.8-1.3-0.8-2.1c0-0.8,0.2-1.5,0.8-2.1c0.5-0.6,1.2-0.9,2-0.9s1.5,0.3,2,0.9
		c0.5,0.6,0.8,1.3,0.8,2.1c0,0.8-0.3,1.5-0.8,2.1S76,48.3,75.2,48.3z M75.2,47.6c0.6,0,1-0.2,1.4-0.6c0.3-0.4,0.5-0.9,0.5-1.6
		c0-0.6-0.2-1.2-0.5-1.6c-0.3-0.4-0.8-0.6-1.4-0.6c-0.6,0-1,0.2-1.4,0.6c-0.3,0.4-0.5,0.9-0.5,1.6c0,0.6,0.2,1.2,0.5,1.6
		C74.2,47.4,74.7,47.6,75.2,47.6z"/>
	<path class="st0" d="M82.3,42.5h0.8v3.7c0,0.6-0.2,1.1-0.6,1.5c-0.4,0.4-0.9,0.6-1.5,0.6c-0.6,0-1.1-0.2-1.5-0.6
		c-0.4-0.4-0.6-0.9-0.6-1.5v-3.7h0.8v3.7c0,0.8,0.5,1.4,1.3,1.4c0.8,0,1.3-0.5,1.3-1.4V42.5z"/>
	<path class="st0" d="M84.6,42.9c0.3-0.3,0.8-0.5,1.5-0.5c0.6,0,1.2,0.2,1.8,0.6l-0.4,0.6c-0.5-0.3-0.9-0.5-1.4-0.5
		c-0.8,0-1.2,0.3-1.2,0.8c0,0.5,0.4,0.7,1.2,0.9c1.3,0.3,2,0.8,2,1.8c0,0.5-0.2,0.9-0.6,1.2c-0.4,0.3-0.9,0.5-1.5,0.5
		c-0.7,0-1.4-0.2-2-0.6l0.4-0.6c0.5,0.3,1,0.5,1.5,0.5c0.8,0,1.3-0.3,1.3-0.8c0-0.5-0.4-0.8-1.4-1c-1.1-0.3-1.8-0.7-1.8-1.7
		C84.1,43.6,84.3,43.2,84.6,42.9z"/>
</g>
</svg>
