<svg id="Layer_1" data-name="Layer 1" xmlns="http://www.w3.org/2000/svg" viewBox="0 0 122.75 53.87"><defs><style>.cls-1{fill:#fff;}</style></defs><path class="cls-1" d="M465.11,569.14H443.83a4.33,4.33,0,0,1-4.33-4.33V536.72a4.34,4.34,0,0,1,4.33-4.33h21.28a4.34,4.34,0,0,1,4.33,4.33v28.09A4.34,4.34,0,0,1,465.11,569.14Zm-21.28-35.75a3.34,3.34,0,0,0-3.33,3.33v28.09a3.34,3.34,0,0,0,3.33,3.33h21.28a3.34,3.34,0,0,0,3.33-3.33V536.72a3.34,3.34,0,0,0-3.33-3.33Z" transform="translate(-439.5 -532.39)"/><path class="cls-1" d="M496,569.14H474.77a4.33,4.33,0,0,1-4.33-4.33V536.72a4.34,4.34,0,0,1,4.33-4.33H496a4.34,4.34,0,0,1,4.33,4.33v28.09A4.33,4.33,0,0,1,496,569.14Zm-21.27-35.75a3.34,3.34,0,0,0-3.33,3.33v28.09a3.34,3.34,0,0,0,3.33,3.33H496a3.34,3.34,0,0,0,3.33-3.33V536.72a3.34,3.34,0,0,0-3.33-3.33Z" transform="translate(-439.5 -532.39)"/><path class="cls-1" d="M527,569.14H505.7a4.33,4.33,0,0,1-4.33-4.33V536.72a4.34,4.34,0,0,1,4.33-4.33H527a4.34,4.34,0,0,1,4.33,4.33v28.09A4.33,4.33,0,0,1,527,569.14ZM505.7,533.39a3.34,3.34,0,0,0-3.33,3.33v28.09a3.34,3.34,0,0,0,3.33,3.33H527a3.34,3.34,0,0,0,3.33-3.33V536.72a3.34,3.34,0,0,0-3.33-3.33Z" transform="translate(-439.5 -532.39)"/><path class="cls-1" d="M557.92,569.14H536.64a4.34,4.34,0,0,1-4.33-4.33V536.72a4.34,4.34,0,0,1,4.33-4.33h21.28a4.34,4.34,0,0,1,4.33,4.33v28.09A4.33,4.33,0,0,1,557.92,569.14Zm-21.28-35.75a3.34,3.34,0,0,0-3.33,3.33v28.09a3.34,3.34,0,0,0,3.33,3.33h21.28a3.34,3.34,0,0,0,3.33-3.33V536.72a3.34,3.34,0,0,0-3.33-3.33Z" transform="translate(-439.5 -532.39)"/><path class="cls-1" d="M445.64,538.61h11.18a10.73,10.73,0,0,1,4.52.74,6.63,6.63,0,0,1,2.5,2.11,5.59,5.59,0,0,1,1,3.34c0,2.65-1.44,4.43-4.32,5.32a6.14,6.14,0,0,1,3.74,2.23,6,6,0,0,1,1.25,3.64,6.25,6.25,0,0,1-2,4.66c-1.36,1.3-3.57,2-6.63,2H445.64Zm5.61,4.24v5.26h4.25c1.56,0,2.54-.31,2.95-.93a3.23,3.23,0,0,0,.6-1.76,2.51,2.51,0,0,0-.5-1.58,2.09,2.09,0,0,0-1.1-.82,10.51,10.51,0,0,0-2.35-.17Zm0,9.53v5.78h4.31a4.93,4.93,0,0,0,3.13-.77,2.72,2.72,0,0,0,.91-2.17,2.66,2.66,0,0,0-.88-2,4.11,4.11,0,0,0-2.91-.84Z" transform="translate(-439.5 -532.39)"/><path class="cls-1" d="M556.37,543.89l-4.78,1.6a3.92,3.92,0,0,0-4.09-2.85q-3.33,0-3.33,2.16a2,2,0,0,0,.62,1.46,6.37,6.37,0,0,0,2.82,1,27.79,27.79,0,0,1,5.37,1.49,6.84,6.84,0,0,1,2.87,2.44A6.41,6.41,0,0,1,557,555a7.47,7.47,0,0,1-2.5,5.62Q552,563,547.1,563a11.3,11.3,0,0,1-6.28-1.68,8,8,0,0,1-3.42-5l5.21-1.17c.58,2.24,2.21,3.35,4.87,3.35a4.59,4.59,0,0,0,2.88-.74,2.24,2.24,0,0,0,.95-1.79,1.86,1.86,0,0,0-.86-1.63,10.26,10.26,0,0,0-3.32-1.09c-3-.64-5.23-1.5-6.53-2.6a5.91,5.91,0,0,1-2-4.8,7.16,7.16,0,0,1,2.33-5.4,8.83,8.83,0,0,1,6.31-2.2Q554.36,538.24,556.37,543.89Z" transform="translate(-439.5 -532.39)"/><path class="cls-1" d="M525.53,538.61v4.75h-5.94v19.25h-5.7V543.36h-6v-4.75Z" transform="translate(-439.5 -532.39)"/><path class="cls-1" d="M488.21,538.61v24H482.6v-24Z" transform="translate(-439.5 -532.39)"/><path class="cls-1" d="M482.75,572.05l-4.23,14H475l-4.21-14h3.49l2.8,10,2.92-10Zm4.53,0v14H484v-14Zm12.9,2.41-7.07,8.91h7.3v2.68h-11.3v-2.38l7.05-9h-6.58v-2.65h10.6Zm8.93-2.41,4.38,14H510l-.86-2.88h-4.52l-.88,2.88h-2.87l4.48-14Zm-3.74,8.53h3l-1.47-4.91Zm20.09-2v7.49H524a11.62,11.62,0,0,0-.47-1.61,4.71,4.71,0,0,1-3.82,1.82,5.11,5.11,0,0,1-4.26-2,8.07,8.07,0,0,1-1.52-5.07,8.34,8.34,0,0,1,1.62-5.37,5.94,5.94,0,0,1,8.19-.72,5.72,5.72,0,0,1,1.76,3.5l-3.12.41c-.26-1.7-1.06-2.55-2.41-2.55a2.21,2.21,0,0,0-2,1.21,7.12,7.12,0,0,0-.68,3.44,6.1,6.1,0,0,0,.74,3.29,2.35,2.35,0,0,0,2.1,1.14,2.39,2.39,0,0,0,1.58-.58,2.24,2.24,0,0,0,.69-1.83H519.7v-2.62Z" transform="translate(-439.5 -532.39)"/></svg>