<svg id="Layer_1" data-name="Layer 1" xmlns="http://www.w3.org/2000/svg" viewBox="0 0 132.75 54.89"><defs><style>.cls-1{fill:none;stroke:#fff;stroke-miterlimit:10;}</style></defs><path class="cls-1" d="M467.19,564.54H445.91a4.33,4.33,0,0,1-4.33-4.33h0V532.12a4.34,4.34,0,0,1,4.33-4.33h21.28a4.33,4.33,0,0,1,4.33,4.33v28.09A4.34,4.34,0,0,1,467.19,564.54Zm-21.28-35.75a3.34,3.34,0,0,0-3.33,3.33v28.09a3.35,3.35,0,0,0,3.33,3.33h21.28a3.34,3.34,0,0,0,3.33-3.33V532.12a3.33,3.33,0,0,0-3.33-3.33Z" transform="translate(-441.08 -527.29)"/><path class="cls-1" d="M501.08,564.54H479.85a4.33,4.33,0,0,1-4.33-4.33h0V532.12a4.34,4.34,0,0,1,4.33-4.33h21.23a4.33,4.33,0,0,1,4.33,4.33v28.09a4.33,4.33,0,0,1-4.33,4.33Zm-21.27-35.75a3.34,3.34,0,0,0-3.33,3.33v28.09a3.35,3.35,0,0,0,3.33,3.33h21.27a3.34,3.34,0,0,0,3.33-3.33V532.12a3.33,3.33,0,0,0-3.33-3.33Z" transform="translate(-441.08 -527.29)"/><path class="cls-1" d="M535.08,564.54h-21.3a4.33,4.33,0,0,1-4.33-4.33h0V532.12a4.34,4.34,0,0,1,4.33-4.33h21.3a4.33,4.33,0,0,1,4.33,4.33v28.09a4.33,4.33,0,0,1-4.33,4.33Zm-21.3-35.75a3.34,3.34,0,0,0-3.33,3.33v28.09a3.35,3.35,0,0,0,3.33,3.33h21.3a3.34,3.34,0,0,0,3.33-3.33V532.12a3.33,3.33,0,0,0-3.33-3.33Z" transform="translate(-441.08 -527.29)"/><path class="cls-1" d="M569,564.54H547.72a4.34,4.34,0,0,1-4.33-4.33V532.12a4.34,4.34,0,0,1,4.33-4.33H569a4.33,4.33,0,0,1,4.33,4.33v28.09a4.33,4.33,0,0,1-4.33,4.33Zm-21.28-35.75a3.34,3.34,0,0,0-3.33,3.33v28.09a3.35,3.35,0,0,0,3.33,3.33H569a3.34,3.34,0,0,0,3.33-3.33V532.12a3.33,3.33,0,0,0-3.33-3.33Z" transform="translate(-441.08 -527.29)"/><path class="cls-1" d="M447.72,534H458.9a10.73,10.73,0,0,1,4.52.74,6.55,6.55,0,0,1,2.5,2.11,5.61,5.61,0,0,1,1,3.34c0,2.65-1.44,4.43-4.32,5.32a6.1,6.1,0,0,1,3.74,2.23,5.92,5.92,0,0,1,1.25,3.64,6.25,6.25,0,0,1-2,4.66c-1.36,1.3-3.57,2-6.63,2H447.72Zm5.61,4.24v5.26h4.25c1.56,0,2.54-.31,2.95-.93a3.21,3.21,0,0,0,.6-1.76,2.48,2.48,0,0,0-.5-1.58,2.06,2.06,0,0,0-1.1-.82,10.26,10.26,0,0,0-2.35-.17Zm0,9.53v5.78h4.31a4.94,4.94,0,0,0,3.13-.77,2.72,2.72,0,0,0,.91-2.17,2.64,2.64,0,0,0-.88-2,4.12,4.12,0,0,0-2.91-.84Z" transform="translate(-441.08 -527.29)"/><path class="cls-1" d="M567.45,539.29l-4.78,1.6a3.91,3.91,0,0,0-4.09-2.85q-3.33,0-3.33,2.16a2,2,0,0,0,.62,1.46,6.51,6.51,0,0,0,2.82,1,26.9,26.9,0,0,1,5.37,1.49,6.8,6.8,0,0,1,2.87,2.44,6.39,6.39,0,0,1,1.15,3.81,7.5,7.5,0,0,1-2.5,5.62c-1.66,1.58-4.13,2.38-7.4,2.38a11.32,11.32,0,0,1-6.28-1.68,8,8,0,0,1-3.42-5l5.21-1.17c.58,2.24,2.21,3.35,4.87,3.35a4.58,4.58,0,0,0,2.88-.74,2.22,2.22,0,0,0,.95-1.79,1.84,1.84,0,0,0-.86-1.63,10.21,10.21,0,0,0-3.32-1.09c-3-.64-5.23-1.5-6.53-2.6a5.93,5.93,0,0,1-2-4.8,7.18,7.18,0,0,1,2.33-5.4,8.85,8.85,0,0,1,6.31-2.2Q565.45,533.64,567.45,539.29Z" transform="translate(-441.08 -527.29)"/><path class="cls-1" d="M533.61,534v4.75h-5.94V558H522V538.76h-6V534Z" transform="translate(-441.08 -527.29)"/><path class="cls-1" d="M493.29,534v24h-5.61V534Z" transform="translate(-441.08 -527.29)"/><path class="cls-1" d="M491.83,567.45l-4.23,14h-3.52l-4.21-14h3.49l2.8,10,2.92-10Zm4.53,0v14h-3.28v-14Zm12.9,2.41-7.07,8.91h7.3v2.68h-11.3v-2.38l7.05-9h-6.58v-2.65h10.6Zm8.93-2.41,4.38,14h-3.49l-.86-2.88H513.7l-.88,2.88H510l4.48-14ZM514.45,576h3L516,571.07Zm20.09-2v7.49h-1.46a11,11,0,0,0-.47-1.61,4.73,4.73,0,0,1-3.82,1.82,5.13,5.13,0,0,1-4.26-2,8.07,8.07,0,0,1-1.52-5.07,8.39,8.39,0,0,1,1.62-5.37,5.93,5.93,0,0,1,8.19-.72,5.67,5.67,0,0,1,1.76,3.5l-3.12.41c-.26-1.7-1.06-2.55-2.41-2.55a2.22,2.22,0,0,0-2,1.21,7.15,7.15,0,0,0-.68,3.44,6.19,6.19,0,0,0,.74,3.29,2.37,2.37,0,0,0,2.1,1.14,2.41,2.41,0,0,0,1.58-.58,2.24,2.24,0,0,0,.69-1.83h-2.7v-2.62Z" transform="translate(-441.08 -527.29)"/></svg>